<?xml version="1.0" encoding="UTF-8"?>
<svg width="122px" height="94px" viewBox="0 0 122 94" version="1.1" xmlns="http://www.w3.org/2000/svg" xmlns:xlink="http://www.w3.org/1999/xlink">
    <title>Ahmedabad</title>
    <g id="final" stroke="none" stroke-width="1" fill="none" fill-rule="evenodd">
        <g id="CovidJaankari_2" transform="translate(-61.000000, -322.000000)" stroke="#231F20">
            <g id="Group-2" transform="translate(45.000000, 306.000000)">
                <g id="Ahmedabad" transform="translate(16.897059, 16.718245)">
                    <polygon id="Stroke-2" fill="#E2D9AD" points="39.1029412 28.2817547 44.1029412 28.2817547 44.1029412 19.2817547 39.1029412 19.2817547"></polygon>
                    <polygon id="Stroke-4" fill="#E2D9AD" points="44.1029412 13.2817547 39.1029412 13.2817547 39.1067006 7.28175472 44.1029412 7.28175472"></polygon>
                    <polygon id="Stroke-6" fill="#E2D9AD" points="45.1029412 43.2817547 37.1029412 43.2817547 37.1029412 33.2817547 45.0959952 33.2817547"></polygon>
                    <polygon id="Stroke-8" fill="#E2D9AD" points="36.966 92.3855283 45.2279118 92.3855283 45.2279118 49.856 36.966 49.856"></polygon>
                    <path d="M41.0965971,2.11688679 C44.9019206,3.78924528 44.40495,5.78424528 44.40495,5.78424528 C44.40495,6.68764151 43.8021265,7.41896226 43.0557735,7.41896226 L39.1338324,7.41896226 C38.3946559,7.41896226 37.7882441,6.68764151 37.7882441,5.78424528 C37.7882441,5.78424528 37.2876853,3.78924528 41.0965971,2.11688679 Z" id="Stroke-11" fill="#FAF3D3" stroke-linecap="round" stroke-linejoin="round"></path>
                    <line x1="41.0965971" y1="2.11688679" x2="41.0965971" y2="0" id="Stroke-13" stroke-linecap="round" stroke-linejoin="round"></line>
                    <path d="M45.0458088,17.3653196 C45.0458088,18.2514863 44.3550735,18.9641509 43.5046618,18.9641509 L38.6856618,18.9641509 C37.8370441,18.9641509 37.1516912,18.2514863 37.1516912,17.3653196 L37.1516912,15.2627724 C37.1516912,14.3766057 37.8370441,13.6620755 38.6856618,13.6620755 L43.5046618,13.6620755 C44.3550735,13.6620755 45.0458088,14.3766057 45.0458088,15.2627724 L45.0458088,17.3653196 Z" id="Stroke-16" fill="#FAF3D3" stroke-linecap="round" stroke-linejoin="round"></path>
                    <path d="M46.5489206,31.8025943 C46.5489206,32.6414623 45.83845,33.3208019 44.9647147,33.3208019 L37.2284794,33.3208019 C36.3547441,33.3208019 35.6478618,32.6414623 35.6478618,31.8025943 L35.6478618,29.3702358 C35.6478618,28.5295755 36.3547441,27.8502358 37.2284794,27.8502358 L44.9647147,27.8502358 C45.83845,27.8502358 46.5489206,28.5295755 46.5489206,29.3702358 L46.5489206,31.8025943 Z" id="Stroke-18" fill="#FAF3D3" stroke-linecap="round" stroke-linejoin="round"></path>
                    <path d="M47.1903176,48.2777453 C47.1903176,49.1470849 46.4798471,49.8568962 45.6061118,49.8568962 L36.5906706,49.8568962 C35.7151412,49.8568962 35.0064647,49.1470849 35.0064647,48.2777453 L35.0064647,44.8147264 C35.0064647,43.9418019 35.7151412,43.2355755 36.5906706,43.2355755 L45.6061118,43.2355755 C46.4798471,43.2355755 47.1903176,43.9418019 47.1903176,44.8147264 L47.1903176,48.2777453 Z" id="Stroke-20" fill="#FAF3D3" stroke-linecap="round" stroke-linejoin="round"></path>
                    <path d="M47.1903176,47.3885094 L47.1903176,45.1461509 C47.1903176,42.3965283 50.0250235,40.261717 52.7861706,39.1898302 C58.5686118,36.9385094 60.0110824,35.472283 60.0110824,35.472283 C60.0110824,35.472283 61.4481706,36.9385094 67.2342,39.1898302 C69.9917588,40.261717 72.8300529,42.3965283 72.8300529,45.1461509 L72.8300529,47.4297358 L72.8300529,48.182566 C72.3599941,47.861717 71.8307294,47.5408679 71.0987294,47.2343585 C67.1947294,48.8601132 67.3992588,50.977 67.3992588,50.977 L67.3920824,50.977 C67.3920824,50.977 67.6019941,48.8601132 63.7015824,47.2343585 C59.8011706,48.8601132 60.0021118,50.977 60.0021118,50.977 L60.0092882,50.977 C60.0092882,50.977 60.2156118,48.8601132 56.3152,47.2343585 C52.4183765,48.8601132 52.6175235,50.977 52.6175235,50.977 L52.6247,50.977 C52.6247,50.977 52.8328176,48.8601132 48.9359941,47.2343585 C48.1968176,47.5444528 47.6639647,47.8706792 47.1903176,48.1951132 L47.1903176,47.3885094 Z" id="Stroke-22" fill="#FAF3D3" stroke-linecap="round" stroke-linejoin="round"></path>
                    <line x1="60.0083912" y1="35.6115566" x2="60.0083912" y2="31.0282547" id="Stroke-24" stroke-linecap="round" stroke-linejoin="round"></line>
                    <polygon id="Stroke-27" fill="#FAF3D3" stroke-linecap="round" stroke-linejoin="round" points="45.2315 92.3855283 74.786 92.3855283 74.786 57.1978868 45.2315 57.1978868"></polygon>
                    <polygon id="Stroke-29" fill="#E2D9AD" points="76.5298824 27.8500566 81.3058235 27.8500566 81.3058235 18.9648679 76.5298824 18.9648679"></polygon>
                    <polygon id="Stroke-31" fill="#E2D9AD" points="81.3029529 13.869283 76.5306 13.869283 76.5306 7.41824528 81.3065412 7.41824528"></polygon>
                    <polygon id="Stroke-33" fill="#E2D9AD" points="74.786 43.2346792 83.0479118 43.2346792 83.0479118 33.3206226 74.786 33.3206226"></polygon>
                    <polygon id="Stroke-35" fill="#E2D9AD" points="74.786 92.3855283 83.0479118 92.3855283 83.0479118 49.856 74.786 49.856"></polygon>
                    <path d="M78.9201853,2.11688679 C82.7255088,3.78924528 82.2285382,5.78424528 82.2285382,5.78424528 C82.2285382,6.68764151 81.6221265,7.41896226 80.8793618,7.41896226 L76.9574206,7.41896226 C76.2146559,7.41896226 75.6118324,6.68764151 75.6118324,5.78424528 C75.6118324,5.78424528 75.1112735,3.78924528 78.9201853,2.11688679 Z" id="Stroke-37" fill="#FAF3D3" stroke-linecap="round" stroke-linejoin="round"></path>
                    <line x1="78.9201853" y1="2.11688679" x2="78.9201853" y2="0" id="Stroke-39" stroke-linecap="round" stroke-linejoin="round"></line>
                    <path d="M82.8658088,17.4280189 C82.8658088,18.279434 82.1786618,18.9641509 81.3246618,18.9641509 L76.50925,18.9641509 C75.6570441,18.9641509 74.9681029,18.279434 74.9681029,17.4280189 L74.9681029,15.4079245 C74.9681029,14.5565094 75.6570441,13.87 76.50925,13.87 L81.3246618,13.87 C82.1786618,13.87 82.8658088,14.5565094 82.8658088,15.4079245 L82.8658088,17.4280189 Z" id="Stroke-42" fill="#FAF3D3" stroke-linecap="round" stroke-linejoin="round"></path>
                    <path d="M84.3656912,31.8025943 C84.3656912,32.6414623 83.6606029,33.3208019 82.7886618,33.3208019 L75.0488382,33.3208019 C74.1751029,33.3208019 73.4718088,32.6414623 73.4718088,31.8025943 L73.4718088,29.3702358 C73.4718088,28.5295755 74.1751029,27.8502358 75.0488382,27.8502358 L82.7886618,27.8502358 C83.6606029,27.8502358 84.3656912,28.5295755 84.3656912,29.3702358 L84.3656912,31.8025943 Z" id="Stroke-44" fill="#FAF3D3" stroke-linecap="round" stroke-linejoin="round"></path>
                    <path d="M85.0069088,48.2777453 C85.0069088,49.1470849 84.3018206,49.8568962 83.4298794,49.8568962 L74.4072618,49.8568962 C73.5335265,49.8568962 72.8266441,49.1470849 72.8266441,48.2777453 L72.8266441,44.8147264 C72.8266441,43.9418019 73.5335265,43.2355755 74.4072618,43.2355755 L83.4298794,43.2355755 C84.3018206,43.2355755 85.0069088,43.9418019 85.0069088,44.8147264 L85.0069088,48.2777453 Z" id="Stroke-46" fill="#FAF3D3" stroke-linecap="round" stroke-linejoin="round"></path>
                    <path d="M72.8264647,48.2777453 L72.8264647,48.1791604 C72.3564059,47.8601038 71.8307294,47.5410472 71.0987294,47.2345377 C67.1947294,48.8602925 67.3992588,50.9771792 67.3992588,50.9771792 L67.3920824,50.9771792 C67.3920824,50.9771792 67.6019941,48.8602925 63.7015824,47.2345377 C60.3699059,48.6236887 60.0326118,50.358783 60.0057,50.8391604 C59.9769941,50.358783 59.6432882,48.6236887 56.3152,47.2345377 C52.9960824,48.6201038 52.6498176,50.3444434 52.6211118,50.833783 C52.5942,50.3444434 52.2533176,48.6201038 48.9359941,47.2345377 C48.1950235,47.5446321 47.6639647,47.869066 47.1903176,48.1952925 L47.1903176,48.2777453 C47.1903176,49.1470849 46.4780529,49.8568962 45.6061118,49.8568962 L45.2347294,49.8568962 L45.2311412,49.8586887 L45.2311412,57.198783 L74.7856412,57.198783 L74.7856412,49.8568962 L74.4070824,49.8568962 C73.5351412,49.8568962 72.8264647,49.1470849 72.8264647,48.2777453 Z" id="Stroke-48" fill="#E2D9AD"></path>
                    <path d="M68.3341735,74.3803396 L68.3341735,92.3855283 L51.6829676,92.3855283 L51.6829676,74.3803396 L53.1613206,74.3803396 C53.5434676,72.3978868 54.9482618,68.9456226 60.0112618,66.3537358 L60.01485,66.3537358 C65.0796441,68.9456226 66.4844382,72.3978868 66.8665853,74.3803396 L68.3341735,74.3803396 Z" id="Stroke-50" fill="#E2D9AD"></path>
                    <path d="M120.006197,57.4309057 C120.006197,57.4309057 120.216109,55.3158113 116.315697,53.6936415 C112.417079,55.3158113 112.616226,57.4309057 112.616226,57.4309057 L112.60905,57.4309057 C112.60905,57.4309057 112.818962,55.3158113 108.922138,53.6936415 C105.018138,55.3158113 105.219079,57.4309057 105.219079,57.4309057 L105.226256,57.4309057 C105.226256,57.4309057 105.432579,55.3158113 101.532168,53.6936415 C97.6353441,55.3158113 97.8362853,57.4309057 97.8362853,57.4309057 L97.8291088,57.4309057 C97.8291088,57.4309057 98.0390206,55.3158113 94.1421971,53.6936415 C90.2381971,55.3158113 90.4391382,57.4309057 90.4391382,57.4309057 L90.4481088,57.4309057 C90.4481088,57.4309057 90.6526382,55.3158113 86.7522265,53.6936415 C82.8554029,55.3158113 83.05455,57.4309057 83.05455,57.4309057 L83.0437853,57.7499623 L83.0437853,62.8745849 L120.006197,62.8745849 L120.006197,57.8575094 L120.006197,57.4309057 Z" id="Stroke-52" fill="#E2D9AD"></path>
                    <line x1="101.504359" y1="44.2133585" x2="101.504359" y2="41.5838302" id="Stroke-54" stroke-linecap="round" stroke-linejoin="round"></line>
                    <path d="M90.4382412,57.4309057 C90.4382412,57.4309057 90.2390941,55.3158113 94.1413,53.6936415 C98.0381235,55.3158113 97.8282118,57.4309057 97.8282118,57.4309057 L97.8353882,57.4309057 C97.8353882,57.4309057 97.6362412,55.3158113 101.533065,53.6936415 C105.431682,55.3158113 105.225359,57.4309057 105.225359,57.4309057 L105.218182,57.4309057 C105.218182,57.4309057 105.019035,55.3158113 108.923035,53.6936415 C112.819859,55.3158113 112.608153,57.4309057 112.608153,57.4309057 L112.618918,56.070434 L112.618918,53.8083585 C112.618918,51.0802453 110.166359,48.9633585 107.780182,47.900434 C102.7728,45.6670377 101.533065,44.2133585 101.533065,44.2133585 C101.533065,44.2133585 100.280771,45.6670377 95.2769765,47.900434 C92.8943882,48.9633585 90.4310647,51.0802453 90.4310647,53.8083585 L90.4310647,56.031 L90.4382412,57.4309057 Z" id="Stroke-57" fill="#FAF3D3" stroke-linecap="round" stroke-linejoin="round"></path>
                    <polygon id="Stroke-59" fill="#FAF3D3" points="83.0443235 92.3855283 120.006735 92.3855283 120.006735 62.8745849 83.0443235 62.8745849"></polygon>
                    <path d="M108.386415,77.1145472 L108.386415,92.3862453 L94.6685912,92.3862453 L94.6650029,77.1145472 L95.8903853,77.1145472 C96.2025618,75.4852075 97.3561794,72.6405849 101.529297,70.5057736 L101.532885,70.5057736 C105.698826,72.6405849 106.857826,75.4852075 107.170003,77.1145472 L108.386415,77.1145472 Z" id="Stroke-61" fill="#E2D9AD"></path>
                    <path d="M0.00358823529,57.4309057 C0.00358823529,57.4309057 -0.206323529,55.3158113 3.69408824,53.6936415 C7.59270588,55.3158113 7.39355882,57.4309057 7.39355882,57.4309057 L7.39714706,57.4309057 C7.39714706,57.4309057 7.18723529,55.3158113 11.0876471,53.6936415 C14.9916471,55.3158113 14.7907059,57.4309057 14.7907059,57.4309057 L14.7799412,57.4309057 C14.7799412,57.4309057 14.5736176,55.3158113 18.4740294,53.6936415 C22.3744412,55.3158113 22.1735,57.4309057 22.1735,57.4309057 L22.1770882,57.4309057 C22.1770882,57.4309057 21.9671765,55.3158113 25.8711765,53.6936415 C29.768,55.3158113 29.5688529,57.4309057 29.5688529,57.4309057 L29.5652647,57.4309057 C29.5652647,57.4309057 29.3571471,55.3158113 33.2575588,53.6936415 C37.1507941,55.3158113 36.9552353,57.4309057 36.9552353,57.4309057 L36.966,57.7499623 L36.966,62.8745849 L0,62.8745849 L0,57.8575094 L0.00358823529,57.4309057 Z" id="Stroke-63" fill="#E2D9AD"></path>
                    <line x1="18.5054265" y1="44.2133585" x2="18.5054265" y2="41.5838302" id="Stroke-65" stroke-linecap="round" stroke-linejoin="round"></line>
                    <path d="M29.5679559,57.4309057 C29.5679559,57.4309057 29.7671029,55.3158113 25.8702794,53.6936415 C21.9680735,55.3158113 22.1779853,57.4309057 22.1779853,57.4309057 L22.1743971,57.4309057 C22.1743971,57.4309057 22.3735441,55.3158113 18.4731324,53.6936415 C14.5745147,55.3158113 14.7808382,57.4309057 14.7808382,57.4309057 L14.7916029,57.4309057 C14.7916029,57.4309057 14.99075,55.3158113 11.08675,53.6936415 C7.18633824,55.3158113 7.39804412,57.4309057 7.39804412,57.4309057 L7.38727941,56.070434 L7.38727941,53.8083585 C7.38727941,51.0802453 9.84342647,48.9633585 12.2296029,47.900434 C17.2369853,45.6670377 18.4803088,44.2133585 18.4803088,44.2133585 C18.4803088,44.2133585 19.7290147,45.6670377 24.7292206,47.900434 C27.1153971,48.9633585 29.5787206,51.0802453 29.5787206,53.8083585 L29.5787206,56.031 L29.5679559,57.4309057 Z" id="Stroke-68" fill="#FAF3D3" stroke-linecap="round" stroke-linejoin="round"></path>
                    <polygon id="Stroke-70" fill="#FAF3D3" points="0 92.3855283 36.966 92.3855283 36.966 62.8745849 0 62.8745849"></polygon>
                    <path d="M11.6197824,77.1145472 L11.6197824,92.3862453 L25.3376059,92.3862453 L25.3447824,77.1145472 L24.1194,77.1145472 C23.8036353,75.4852075 22.6500176,72.6405849 18.4804882,70.5057736 L18.4733118,70.5057736 C14.3073706,72.6405849 13.1519588,75.4852075 12.8361941,77.1145472 L11.6197824,77.1145472 Z" id="Stroke-72" fill="#E2D9AD"></path>
                </g>
            </g>
        </g>
    </g>
</svg>