<?xml version="1.0" encoding="UTF-8"?>
<svg width="32px" height="32px" viewBox="0 0 32 32" version="1.1" xmlns="http://www.w3.org/2000/svg" xmlns:xlink="http://www.w3.org/1999/xlink">
    <title>cta</title>
    <g id="final" stroke="none" stroke-width="1" fill="none" fill-rule="evenodd">
        <g id="CovidJaankari_3" transform="translate(-328.000000, -403.000000)">
            <g id="info-copy-2" transform="translate(32.000000, 308.000000)">
                <g id="cta" transform="translate(296.000000, 95.000000)">
                    <circle id="Oval" fill="#3D91D2" cx="16" cy="16" r="16"></circle>
                    <g id="phone-call" transform="translate(11.000000, 11.000000)" fill="#FFFFFF" fill-rule="nonzero">
                        <path d="M9.73777297,7.33898342 L8.33930683,5.94345516 C7.83985464,5.44505221 6.99078592,5.64443286 6.79100504,6.29233722 C6.64116938,6.74091935 6.14171719,6.99012082 5.69221022,6.89042076 C4.69330584,6.64121929 3.34478492,5.34537162 3.09505883,4.29872543 C2.94522317,3.85014331 3.24489449,3.35174036 3.69440146,3.20223894 C4.34368931,3.00287776 4.54347018,2.15559275 4.04401799,1.6571898 L2.64555186,0.261661548 C2.2459901,-0.087220516 1.64664747,-0.087220516 1.29703094,0.261661548 L0.348071778,1.20862715 C-0.600887385,2.20543305 0.447962216,4.84696867 2.79538751,7.18946253 C5.14281281,9.53195639 7.78990942,10.6284623 8.7888138,9.63163698 L9.73777297,8.68467138 C10.087409,8.28594902 10.087409,7.68786548 9.73777297,7.33898342 Z" id="Path"></path>
                    </g>
                </g>
            </g>
        </g>
    </g>
</svg>