<?xml version="1.0" encoding="UTF-8"?>
<svg width="64px" height="96px" viewBox="0 0 64 96" version="1.1" xmlns="http://www.w3.org/2000/svg" xmlns:xlink="http://www.w3.org/1999/xlink">
    <title>Hyderabad</title>
    <g id="final" stroke="none" stroke-width="1" fill="none" fill-rule="evenodd">
        <g id="CovidJaankari_2" transform="translate(-89.000000, -650.000000)">
            <g id="Group-4" transform="translate(45.000000, 638.000000)">
                <g id="Hyderabad" transform="translate(44.639360, 13.032272)">
                    <polygon id="Stroke-2" stroke="#231F20" fill="#EAC591" points="4.69397333 33.9800736 8.01975458 33.9800736 11.0939733 33.9800736 11.0939733 22.2516786 4.69397333 22.2516786"></polygon>
                    <polygon id="Stroke-4" stroke="#231F20" fill="#EAC591" points="4.69397333 16.387481 11.0939733 16.387481 11.0939733 10.5232835 4.69397333 10.5232835"></polygon>
                    <polygon id="Stroke-6" stroke="#231F20" fill="#EAC591" points="2.56064 51.5726662 13.2273067 51.5726662 13.2273067 38.6714316 2.56064 38.6714316"></polygon>
                    <polygon id="Stroke-8" stroke="#231F20" fill="#EAC591" points="2.45824 94.2691985 12.8224 94.2691985 12.8224 60.9186103 2.45824 60.9186103"></polygon>
                    <path d="M7.79925456,3.48624646 C12.5736546,5.70647361 11.9477346,8.35179304 11.9477346,8.35179304 C11.9477346,9.54990342 11.1899746,10.5232835 10.2581346,10.5232835 L5.34293456,10.5232835 C4.41237456,10.5232835 3.65461456,9.54990342 3.65461456,8.35179304 C3.65461456,8.35179304 3.02613456,5.70647361 7.79925456,3.48624646 Z" id="Stroke-11" stroke="#231F20" fill="#EFD7AB"></path>
                    <line x1="7.638144" y1="2.90029412" x2="7.638144" y2="0" id="Stroke-13" stroke="#231F20" stroke-linecap="round" stroke-linejoin="round"></line>
                    <path d="M12.621824,22.0703162 C12.621824,22.8470809 12.045824,23.4715662 11.332864,23.4715662 L3.943424,23.4715662 C3.234304,23.4715662 2.658304,22.8470809 2.658304,22.0703162 L2.658304,17.7100956 C2.658304,16.936125 3.234304,16.3074485 3.943424,16.3074485 L11.332864,16.3074485 C12.045824,16.3074485 12.621824,16.936125 12.621824,17.7100956 L12.621824,22.0703162 Z" id="Stroke-16" stroke="#231F20" fill="#EFD7AB" stroke-linecap="round" stroke-linejoin="round"></path>
                    <path d="M14.473088,38.8425662 C14.473088,39.6193309 13.903488,40.2466103 13.189248,40.2466103 L2.091648,40.2466103 C1.382528,40.2466103 0.802688,39.6193309 0.802688,38.8425662 L0.802688,34.0939632 C0.802688,33.3144044 1.382528,32.6913162 2.091648,32.6913162 L13.189248,32.6913162 C13.903488,32.6913162 14.473088,33.3144044 14.473088,34.0939632 L14.473088,38.8425662 Z" id="Stroke-18" stroke="#231F20" fill="#EFD7AB"></path>
                    <path d="M15.27808,59.5159632 C15.27808,60.2899338 14.70208,60.9186103 13.9904,60.9186103 L1.2864,60.9186103 C0.57856,60.9186103 0,60.2899338 0,59.5159632 L0,53.2543456 C0,52.480375 0.57856,51.8503015 1.2864,51.8503015 L13.9904,51.8503015 C14.70208,51.8503015 15.27808,52.480375 15.27808,53.2543456 L15.27808,59.5159632 Z" id="Stroke-20" stroke="#231F20" fill="#EFD7AB" stroke-linecap="round" stroke-linejoin="round"></path>
                    <polygon id="Stroke-25" stroke="#231F20" points="12.8224 45.1220662 49.92832 45.1220662 49.92832 40.2463309 12.8224 40.2463309"></polygon>
                    <polygon id="Stroke-27" stroke="#231F20" fill="#EAC591" points="12.8224 45.1220662 18.88192 45.1220662 18.88192 40.2463309 12.8224 40.2463309"></polygon>
                    <polygon id="Stroke-29" stroke="#231F20" fill="#EAC591" points="18.88192 45.1220662 24.93248 45.1220662 24.93248 40.2463309 18.88192 40.2463309"></polygon>
                    <polygon id="Stroke-31" stroke="#231F20" fill="#EAC591" points="24.93248 45.1220662 31.36192 45.1220662 31.36192 40.2463309 24.93248 40.2463309"></polygon>
                    <polygon id="Stroke-33" stroke="#231F20" fill="#EAC591" points="31.36192 45.1220662 37.79648 45.1220662 37.79648 40.2463309 31.36192 40.2463309"></polygon>
                    <polygon id="Stroke-35" stroke="#231F20" fill="#EAC591" points="37.79648 45.1220662 43.8752 45.1220662 43.8752 40.2463309 37.79648 40.2463309"></polygon>
                    <polygon id="Stroke-37" stroke="#231F20" fill="#EAC591" points="43.8752 45.1220662 49.92832 45.1220662 49.92832 40.2463309 43.8752 40.2463309"></polygon>
                    <path d="M28.4183752,59.8002279 L28.4183752,54.9901544 C28.4183752,54.9901544 28.6146104,52.1457426 24.8917495,49.9677279 C21.1702904,52.1457426 21.3623205,54.9901544 21.3623205,54.9901544 L21.3623205,59.8002279 L28.4183752,59.8002279 Z" id="Stroke-41" stroke="#231F20" fill="#EAC591"></path>
                    <path d="M34.4186281,59.8002279 L34.4186281,54.9901544 C34.4186281,54.9901544 34.587066,52.1457426 31.3915584,49.9677279 C28.1972539,52.1457426 28.3620824,54.9901544 28.3620824,54.9901544 L28.3620824,59.8002279 L34.4186281,59.8002279 Z" id="Stroke-41-Copy-2" stroke="#231F20" fill="#EAC591"></path>
                    <path d="M21.759022,59.8002279 L21.759022,54.9901544 C21.759022,54.9901544 21.9369243,52.1457426 18.5618635,49.9677279 C15.1880734,52.1457426 15.3621635,54.9901544 15.3621635,54.9901544 L15.3621635,59.8002279 L21.759022,59.8002279 Z" id="Stroke-41-Copy" stroke="#231F20" fill="#EAC591"></path>
                    <path d="M41.016832,59.4518382 L41.016832,54.6417647 C41.016832,54.6417647 41.196032,51.7973529 37.797632,49.6193382 C34.397952,51.7973529 34.575872,54.6417647 34.575872,54.6417647 L34.575872,59.4518382 L41.016832,59.4518382 Z" id="Stroke-45" stroke="#231F20" fill="#EAC591"></path>
                    <path d="M47.449344,59.4518382 L47.449344,54.6417647 C47.449344,54.6417647 47.628544,51.7973529 44.230144,49.6193382 C40.827904,51.7973529 41.007104,54.6417647 41.007104,54.6417647 L41.007104,59.4518382 L47.449344,59.4518382 Z" id="Stroke-47" stroke="#231F20" fill="#EAC591"></path>
                    <path d="M15.27808,54.4094338 L15.27808,53.2540662 C15.27808,52.4800956 14.70208,51.8500221 13.9904,51.8500221 L12.82176,51.8500221 L12.82176,45.1231838 L49.92768,45.1231838 L49.92768,51.8500221 L48.77056,51.8500221 C48.06144,51.8500221 47.48416,52.4800956 47.48416,53.2540662 L47.48416,54.6413456 L47.4496,54.6413456 C47.4496,54.6413456 47.62752,51.7983309 44.2304,49.6189191 C40.82816,51.7983309 41.00736,54.6413456 41.00736,54.6413456 L41.01632,54.6413456 C41.01632,54.6413456 41.19552,51.7983309 37.7984,49.6189191 C34.39872,51.7983309 34.57536,54.6413456 34.57536,54.6413456 L34.58304,54.6413456 C34.58304,54.6413456 34.76352,51.7983309 31.3664,49.6189191 C27.968,51.7983309 28.14592,54.6413456 28.14592,54.6413456 L28.15232,54.6413456 C28.15232,54.6413456 28.33024,51.7983309 24.93184,49.6189191 C21.53344,51.7983309 21.70752,54.6413456 21.70752,54.6413456 L21.71648,54.6413456 C21.71648,54.6413456 21.89824,51.7983309 18.5024,49.6189191 C15.10272,51.7983309 15.27936,54.6413456 15.27936,54.6413456 L15.27808,54.4094338 Z" id="Stroke-49" stroke="#231F20" fill="#EFD7AB" stroke-linecap="round" stroke-linejoin="round"></path>
                    <polygon id="Stroke-51" stroke="#231F20" fill="#EAC591" points="52.1312 32.6910368 58.1152 32.6910368 58.1152 23.4718456 52.1312 23.4718456"></polygon>
                    <polygon id="Stroke-53" stroke="#231F20" fill="#EAC591" points="52.1312 16.3063309 58.1152 16.3063309 58.1152 10.1620662 52.1312 10.1620662"></polygon>
                    <polygon id="Stroke-55" stroke="#231F20" fill="#EAC591" points="49.9424 51.8503015 60.30528 51.8503015 60.30528 40.2477279 49.9424 40.2477279"></polygon>
                    <polygon id="Stroke-57" stroke="#231F20" fill="#EAC591" points="49.9424 94.2691985 60.30528 94.2691985 60.30528 60.9186103 49.9424 60.9186103"></polygon>
                    <path d="M55.123072,2.90029412 C59.896192,5.19147059 59.271552,7.92132353 59.271552,7.92132353 C59.271552,9.15772059 58.516352,10.1622059 57.580672,10.1622059 L52.665472,10.1622059 C51.736192,10.1622059 50.977152,9.15772059 50.977152,7.92132353 C50.977152,7.92132353 50.349952,5.19147059 55.123072,2.90029412 Z" id="Stroke-59" stroke="#231F20" fill="#EFD7AB"></path>
                    <line x1="55.123072" y1="2.90029412" x2="55.123072" y2="0" id="Stroke-61" stroke="#231F20" stroke-linecap="round" stroke-linejoin="round"></line>
                    <path d="M60.1056,22.0703162 C60.1056,22.8470809 59.52832,23.4715662 58.81536,23.4715662 L51.43232,23.4715662 C50.71808,23.4715662 50.14208,22.8470809 50.14208,22.0703162 L50.14208,17.7100956 C50.14208,16.936125 50.71808,16.3074485 51.43232,16.3074485 L58.81536,16.3074485 C59.52832,16.3074485 60.1056,16.936125 60.1056,17.7100956 L60.1056,22.0703162 Z" id="Stroke-64" stroke="#231F20" fill="#EFD7AB" stroke-linecap="round" stroke-linejoin="round"></path>
                    <path d="M61.956864,38.8425662 C61.956864,39.6193309 61.383424,40.2466103 60.673024,40.2466103 L49.576704,40.2466103 C48.866304,40.2466103 48.291584,39.6193309 48.291584,38.8425662 L48.291584,34.0939632 C48.291584,33.3144044 48.866304,32.6913162 49.576704,32.6913162 L60.673024,32.6913162 C61.383424,32.6913162 61.956864,33.3144044 61.956864,34.0939632 L61.956864,38.8425662 Z" id="Fill-65" fill="#EFD7AB"></path>
                    <path d="M61.956864,38.8425662 C61.956864,39.6193309 61.383424,40.2466103 60.673024,40.2466103 L49.576704,40.2466103 C48.866304,40.2466103 48.291584,39.6193309 48.291584,38.8425662 L48.291584,34.0939632 C48.291584,33.3144044 48.866304,32.6913162 49.576704,32.6913162 L60.673024,32.6913162 C61.383424,32.6913162 61.956864,33.3144044 61.956864,34.0939632 L61.956864,38.8425662 Z" id="Stroke-66" stroke="#231F20" stroke-linecap="round" stroke-linejoin="round"></path>
                    <path d="M62.761856,59.5159632 C62.761856,60.2899338 62.184576,60.9186103 61.475456,60.9186103 L48.770176,60.9186103 C48.062336,60.9186103 47.483776,60.2899338 47.483776,59.5159632 L47.483776,53.2543456 C47.483776,52.480375 48.062336,51.8503015 48.770176,51.8503015 L61.475456,51.8503015 C62.184576,51.8503015 62.761856,52.480375 62.761856,53.2543456 L62.761856,59.5159632 Z" id="Fill-67" fill="#EFD7AB"></path>
                    <path d="M62.761856,59.5159632 C62.761856,60.2899338 62.184576,60.9186103 61.475456,60.9186103 L48.770176,60.9186103 C48.062336,60.9186103 47.483776,60.2899338 47.483776,59.5159632 L47.483776,53.2543456 C47.483776,52.480375 48.062336,51.8503015 48.770176,51.8503015 L61.475456,51.8503015 C62.184576,51.8503015 62.761856,52.480375 62.761856,53.2543456 L62.761856,59.5159632 Z" id="Stroke-68" stroke="#231F20" stroke-linecap="round" stroke-linejoin="round"></path>
                    <path d="M47.4815514,59.5159632 L47.4815514,59.4516985 L15.2387674,59.4516985 L15.2387674,59.5159632 C15.2387674,60.2899338 14.6621109,60.9186103 13.9496199,60.9186103 L12.779648,60.9186103 L12.779648,94.2691985 L49.885568,94.2691985 L49.885568,60.9186103 L48.7694174,60.9186103 C48.0594893,60.9186103 47.4815514,60.2899338 47.4815514,59.5159632 Z" id="Stroke-70" stroke="#231F20" fill="#EFD7AB"></path>
                    <path d="M21.674368,66.3663015 C21.674368,67.8625515 20.562048,69.0751985 19.193728,69.0751985 C17.822848,69.0751985 16.707968,67.8625515 16.707968,66.3663015 C16.707968,64.8714485 17.822848,63.6588015 19.193728,63.6588015 C20.562048,63.6588015 21.674368,64.8714485 21.674368,66.3663015 Z" id="Stroke-72" stroke="#231F20" fill="#EAC591" stroke-linecap="round" stroke-linejoin="round"></path>
                    <path d="M45.97056,66.3663015 C45.97056,67.8625515 44.85952,69.0751985 43.48992,69.0751985 C42.11904,69.0751985 41.00672,67.8625515 41.00672,66.3663015 C41.00672,64.8714485 42.11904,63.6588015 43.48992,63.6588015 C44.85952,63.6588015 45.97056,64.8714485 45.97056,66.3663015 Z" id="Stroke-74" stroke="#231F20" fill="#EAC591" stroke-linecap="round" stroke-linejoin="round"></path>
                    <path d="M20.940544,94.2691985 L20.940544,78.9783897 C20.940544,78.9783897 20.153344,70.8642721 31.375104,65.4506691 L31.381504,65.4506691 C42.605824,70.8642721 41.814784,78.9783897 41.814784,78.9783897 L41.814784,94.2691985 L20.940544,94.2691985 Z" id="Stroke-76" stroke="#231F20" fill="#EAC591"></path>
                </g>
            </g>
        </g>
    </g>
</svg>