<?xml version="1.0" encoding="UTF-8"?>
<svg width="89px" height="95px" viewBox="0 0 89 95" version="1.1" xmlns="http://www.w3.org/2000/svg" xmlns:xlink="http://www.w3.org/1999/xlink">
    <title>Jaipur</title>
    <g id="final" stroke="none" stroke-width="1" fill="none" fill-rule="evenodd">
        <g id="CovidJaankari_2" transform="translate(-239.000000, -653.000000)" stroke="#231F20">
            <g id="Group-7" transform="translate(206.000000, 638.000000)">
                <g id="Jaipur" transform="translate(33.664550, 16.000000)">
                    <line x1="43.33545" y1="4" x2="43.33545" y2="0" id="Stroke-2" stroke-linecap="round" stroke-linejoin="round"></line>
                    <polygon id="Stroke-5" fill="#FF8C78" stroke-linecap="round" stroke-linejoin="round" points="38.33545 93 49.33545 93 49.33545 72 38.33545 72"></polygon>
                    <polygon id="Stroke-8" fill="#FF8C78" stroke-linecap="round" stroke-linejoin="round" points="49.33545 33 38.3662623 33 38.33545 16 46.5797564 16 49.307317 16"></polygon>
                    <polygon id="Stroke-10" fill="#FF8C78" stroke-linecap="round" stroke-linejoin="round" points="49.3073136 51 38.33545 51 38.3649262 33 49.33545 33"></polygon>
                    <polygon id="Stroke-12" fill="#FF8C78" stroke-linecap="round" stroke-linejoin="round" points="38.33545 72 49.33545 72 49.33545 51 38.33545 51"></polygon>
                    <path d="M48.9764621,15.7958662 L48.9764621,14.3641761 C48.9764621,14.3641761 48.9777903,12.8388239 48.713447,11.4205141 C48.2339097,9.00269718 47.1645813,5.49840141 43.5355067,3.28797887 C39.9117455,5.49840141 38.8317903,9.00269718 38.356238,11.4205141 C38.0918948,12.8388239 38.0985214,14.3641761 38.0985214,14.3641761 L38.0985214,15.7958662 L48.9764621,15.7958662 Z" id="Stroke-15" fill="#F3C5A1"></path>
                    <path d="M45.0328321,21.3302183 C45.0328321,20.5193732 44.3806082,19.8583873 43.5663246,19.8583873 C42.7586828,19.8583873 42.1051306,20.5193732 42.1051306,21.3302183 L42.1051306,28.1822606 L45.0328321,28.1822606 L45.0328321,21.3302183 Z" id="Stroke-19" fill="#BE664D"></path>
                    <path d="M45.0004201,39.2029296 C45.0004201,38.3479296 44.3442112,37.653493 43.535241,37.653493 C42.7275992,37.653493 42.074047,38.3479296 42.074047,39.2029296 L42.074047,46.4858169 L45.0004201,46.4858169 L45.0004201,39.2029296 Z" id="Stroke-23" fill="#BE664D"></path>
                    <path d="M45.0328321,56.9925493 C45.0328321,56.1415634 44.3806082,55.4551549 43.5663246,55.4551549 C42.7586828,55.4551549 42.1051306,56.1415634 42.1051306,56.9925493 L42.1051306,66.3199437 L45.0328321,66.3199437 L45.0328321,56.9925493 Z" id="Stroke-27" fill="#BE664D"></path>
                    <path d="M45.0328321,78.9170775 C45.0328321,78.1008803 44.3806082,77.4385563 43.5663246,77.4385563 C42.7586828,77.4385563 42.1051306,78.1008803 42.1051306,78.9170775 L42.1051306,87.8845423 L45.0328321,87.8845423 L45.0328321,78.9170775 Z" id="Stroke-31" fill="#BE664D"></path>
                    <path d="M38.0978729,93 L38.0978729,23.4106727 C38.0978729,23.4106727 38.0992007,22.6473456 37.9623798,21.9413012 C37.7272604,20.7290364 37.1852903,18.9785794 35.3641112,17.8728873 C33.5416037,18.9785794 33.0022903,20.7290364 32.7618575,21.9413012 C32.63035,22.6473456 32.6343221,23.4106727 32.6343221,23.4106727 L32.6343221,93 L38.0978729,93 Z" id="Stroke-35" fill="#F3C5A1"></path>
                    <path d="M32.6417888,32.831507 L32.6417888,31.3971408 C32.6417888,31.3971408 32.6484157,29.8717887 32.3814157,28.4548169 C31.9032067,26.037 30.83255,22.5327042 27.202147,20.3222817 C23.5783858,22.5327042 22.4971022,26.037 22.0268634,28.4548169 C21.7532216,29.8717887 21.7650997,31.3971408 21.7650997,31.3971408 L21.7650997,32.831507 L32.6417888,32.831507 Z" id="Stroke-39" fill="#F3C5A1"></path>
                    <polygon id="Stroke-43" fill="#FF8C78" stroke-linecap="round" stroke-linejoin="round" points="21.458853 93 32.33545 93 32.33545 72 21.458853 72"></polygon>
                    <polygon id="Stroke-45" fill="#FF8C78" stroke-linecap="round" stroke-linejoin="round" points="32.6417739 51.2823803 21.7651769 51.2823803 21.7957291 32.8001972 32.6749828 32.8001972"></polygon>
                    <polygon id="Stroke-47" fill="#FF8C78" stroke-linecap="round" stroke-linejoin="round" points="21.7647783 72.0964789 32.6413754 72.0964789 32.6413754 51.2821127 21.7647783 51.2821127"></polygon>
                    <line x1="27.2388097" y1="20.3221479" x2="27.2388097" y2="16.7295423" id="Stroke-49" stroke-linecap="round" stroke-linejoin="round"></line>
                    <path d="M28.6670604,39.1760352 C28.6670604,38.3210352 28.0108515,37.6252606 27.2018813,37.6252606 C26.3929112,37.6252606 25.7406873,38.3210352 25.7406873,39.1760352 L25.7406873,46.4549085 L28.6670604,46.4549085 L28.6670604,39.1760352 Z" id="Stroke-52" fill="#BE664D"></path>
                    <path d="M28.6994724,56.967662 C28.6994724,56.115338 28.0445918,55.4249155 27.2382783,55.4249155 C26.4253231,55.4249155 25.7704425,56.115338 25.7704425,56.967662 L25.7704425,66.2910423 L28.6994724,66.2910423 L28.6994724,56.967662 Z" id="Stroke-54" fill="#BE664D"></path>
                    <path d="M28.6994724,78.8883099 C28.6994724,78.0747887 28.0445918,77.4097887 27.2382783,77.4097887 C26.4253231,77.4097887 25.7704425,78.0747887 25.7704425,78.8883099 L25.7704425,87.8544366 L28.6994724,87.8544366 L28.6994724,78.8883099 Z" id="Stroke-56" fill="#BE664D"></path>
                    <path d="M21.7827112,93 L21.7827112,40.365788 C21.7827112,40.365788 21.7827112,39.606097 21.6458903,38.8996243 C21.4094425,37.6915693 20.8701291,35.9433487 19.0476216,34.8364085 C17.2290992,35.9433487 16.6858007,37.6915693 16.4466963,38.8996243 C16.3165172,39.606097 16.3165172,40.365788 16.3165172,40.365788 L16.3165172,93 L21.7827112,93 Z" id="Stroke-58" fill="#F3C5A1"></path>
                    <polygon id="Stroke-60" fill="#FF8C78" stroke-linecap="round" stroke-linejoin="round" points="5.47512163 93.0951408 16.3543754 93.0951408 16.3543754 72.0951408 5.47512163 72.0951408"></polygon>
                    <polygon id="Stroke-62" fill="#FF8C78" stroke-linecap="round" stroke-linejoin="round" points="5.47512163 72.0964789 16.3543754 72.0964789 16.3543754 51.2821127 5.47512163 51.2821127"></polygon>
                    <path d="M16.3538589,51.2823803 L16.3538589,49.8506901 C16.3538589,49.8506901 16.3604858,48.325338 16.0934858,46.9056901 C15.6126201,44.4865352 14.5406351,40.9849155 10.9155455,38.774493 C7.2891276,40.9849155 6.21182909,44.4865352 5.74026193,46.9056901 C5.46529178,48.325338 5.47455297,49.8506901 5.47455297,49.8506901 L5.47455297,51.2823803 L16.3538589,51.2823803 Z" id="Stroke-64" fill="#F3C5A1"></path>
                    <path d="M12.3764739,56.967662 C12.3764739,56.115338 11.72425,55.4249155 10.9152798,55.4249155 C10.1049813,55.4249155 9.4447873,56.115338 9.4447873,56.967662 L9.4447873,66.2910423 L12.3764739,66.2910423 L12.3764739,56.967662 Z" id="Stroke-66" fill="#BE664D"></path>
                    <path d="M12.3764739,78.8883099 C12.3764739,78.0747887 11.72425,77.4097887 10.9152798,77.4097887 C10.1049813,77.4097887 9.4447873,78.0747887 9.4447873,78.8883099 L9.4447873,87.8544366 L12.3764739,87.8544366 L12.3764739,78.8883099 Z" id="Stroke-68" fill="#BE664D"></path>
                    <line x1="10.9158112" y1="38.7742254" x2="10.9158112" y2="35.1802817" id="Stroke-70" stroke-linecap="round" stroke-linejoin="round"></line>
                    <path d="M65.3266407,93 L65.3266407,40.365788 C65.3266407,40.365788 65.32005,39.606097 65.4581992,38.8996243 C65.6933186,37.6915693 66.2313037,35.9433487 68.0551395,34.8364085 C69.877647,35.9433487 70.4143037,37.6915693 70.6507515,38.8996243 C70.786244,39.606097 70.7835911,40.365788 70.7835911,40.365788 L70.7835911,93 L65.3266407,93 Z" id="Stroke-73" fill="#F3C5A1"></path>
                    <path d="M81.6405121,93 L81.6405121,57.3151296 C81.6405121,57.3151296 81.6365395,56.5572044 81.7707037,55.8563559 C82.0071515,54.6537635 82.5491216,52.9056243 84.3703007,51.7999296 C86.1928082,52.9056243 86.7321216,54.6537635 86.9659127,55.8563559 C87.1067186,56.5572044 87.0987485,57.3151296 87.0987485,57.3151296 L87.0987485,93 L81.6405121,93 Z" id="Stroke-75" fill="#F3C5A1"></path>
                    <polygon id="Stroke-77" fill="#FF8C78" stroke-linecap="round" stroke-linejoin="round" points="70.7586142 93.0951408 81.6365395 93.0951408 81.6365395 72.0951408 70.7586142 72.0951408"></polygon>
                    <polygon id="Stroke-79" fill="#FF8C78" stroke-linecap="round" stroke-linejoin="round" points="70.7586142 72.0964789 81.6365395 72.0964789 81.6365395 51.2821127 70.7586142 51.2821127"></polygon>
                    <line x1="76.1947873" y1="38.7742254" x2="76.1947873" y2="35.1802817" id="Stroke-81" stroke-linecap="round" stroke-linejoin="round"></line>
                    <path d="M70.7580675,51.2823803 L70.7580675,49.8506901 C70.7580675,49.8506901 70.751441,48.325338 71.014456,46.9056901 C71.49665,44.4865352 72.5726201,40.9849155 76.195053,38.774493 C79.8214709,40.9849155 80.8987694,44.4865352 81.3729933,46.9056901 C81.64265,48.325338 81.6360228,49.8506901 81.6360228,49.8506901 L81.6360228,51.2823803 L70.7580675,51.2823803 Z" id="Stroke-84" fill="#F3C5A1"></path>
                    <path d="M74.735453,56.967662 C74.735453,56.115338 75.3929903,55.4249155 76.2006321,55.4249155 C77.0096022,55.4249155 77.6631545,56.115338 77.6631545,56.967662 L77.6631545,66.2910423 L74.735453,66.2910423 L74.735453,56.967662 Z" id="Stroke-86" fill="#BE664D"></path>
                    <path d="M74.735453,78.8883099 C74.735453,78.0747887 75.3929903,77.4097887 76.2006321,77.4097887 C77.0096022,77.4097887 77.6631545,78.0747887 77.6631545,78.8883099 L77.6631545,87.8544366 L74.735453,87.8544366 L74.735453,78.8883099 Z" id="Stroke-88" fill="#BE664D"></path>
                    <path d="M49.33545,93 L49.33545,23.4106727 C49.33545,23.4106727 49.33545,22.6473456 49.4652408,21.9413012 C49.6848867,20.7290364 50.19157,18.9785794 51.90381,17.8728873 C53.6135541,18.9785794 54.1202374,20.7290364 54.3461233,21.9413012 C54.4696741,22.6473456 54.4684264,23.4106727 54.4684264,23.4106727 L54.4684264,93 L49.33545,93 Z" id="Stroke-90" fill="#F3C5A1"></path>
                    <path d="M5.46356541,93 L5.46356541,57.3151296 C5.46356541,57.3151296 5.46489327,56.5572044 5.33072909,55.8563559 C5.09693805,54.6537635 4.55629626,52.9056243 2.73113208,51.7999296 C0.908624615,52.9056243 0.369311182,54.6537635 0.131535063,55.8563559 C-0.00528583283,56.5572044 0,57.3151296 0,57.3151296 L0,93 L5.46356541,93 Z" id="Stroke-92" fill="#F3C5A1"></path>
                    <path d="M65.3098293,32.831507 L65.3098293,31.3971408 C65.3098293,31.3971408 65.3151351,29.8717887 65.0468067,28.4548169 C64.5646127,26.037 63.493956,22.5327042 59.8648813,20.3222817 C56.2437769,22.5327042 55.1624933,26.037 54.6895977,28.4548169 C54.4186127,29.8717887 54.4265582,31.3971408 54.4265582,31.3971408 L54.4265582,32.831507 L65.3098293,32.831507 Z" id="Stroke-94" fill="#F3C5A1"></path>
                    <polygon id="Stroke-96" fill="#FF8C78" stroke-linecap="round" stroke-linejoin="round" points="54.42645 93.0951408 65.3096888 93.0951408 65.3096888 72.0951408 54.42645 72.0951408"></polygon>
                    <polygon id="Stroke-98" fill="#FF8C78" stroke-linecap="round" stroke-linejoin="round" points="65.3098216 51.2823803 54.4265828 51.2823803 54.4597918 32.8001972 65.3377172 32.8001972"></polygon>
                    <polygon id="Stroke-100" fill="#FF8C78" stroke-linecap="round" stroke-linejoin="round" points="54.42645 72.0964789 65.3096888 72.0964789 65.3096888 51.2821127 54.42645 51.2821127"></polygon>
                    <line x1="59.9003485" y1="20.3221479" x2="59.9003485" y2="16.7295423" id="Stroke-102" stroke-linecap="round" stroke-linejoin="round"></line>
                    <path d="M61.3324515,39.1760352 C61.3324515,38.3210352 60.6749142,37.6252606 59.865944,37.6252606 C59.0596306,37.6252606 58.4020933,38.3210352 58.4020933,39.1760352 L58.4020933,46.4549085 L61.3324515,46.4549085 L61.3324515,39.1760352 Z" id="Stroke-105" fill="#BE664D"></path>
                    <path d="M61.3610112,56.967662 C61.3610112,56.115338 60.7087873,55.4249155 59.8998172,55.4249155 C59.0895186,55.4249155 58.4372948,56.115338 58.4372948,56.967662 L58.4372948,66.2910423 L61.3610112,66.2910423 L61.3610112,56.967662 Z" id="Stroke-107" fill="#BE664D"></path>
                    <path d="M61.3610112,78.8883099 C61.3610112,78.0747887 60.7087873,77.4097887 59.8998172,77.4097887 C59.0895186,77.4097887 58.4372948,78.0747887 58.4372948,78.8883099 L58.4372948,87.8544366 L61.3610112,87.8544366 L61.3610112,78.8883099 Z" id="Stroke-109" fill="#BE664D"></path>
                </g>
            </g>
        </g>
    </g>
</svg>