<?xml version="1.0" encoding="UTF-8"?>
<svg width="69px" height="99px" viewBox="0 0 69 99" version="1.1" xmlns="http://www.w3.org/2000/svg" xmlns:xlink="http://www.w3.org/1999/xlink">
    <title>Kolkatta</title>
    <g id="final" stroke="none" stroke-width="1" fill="none" fill-rule="evenodd">
        <g id="CovidJaankari_2" transform="translate(-87.000000, -818.000000)">
            <g id="Group-9" transform="translate(45.000000, 804.000000)">
                <g id="Kolkatta" transform="translate(43.000000, 15.245700)">
                    <path d="M14,68.7430062 C19.7488632,67.3038544 26.6220058,66.464887 34.0093093,66.464887 C41.390884,66.464887 48.2540012,67.2974008 54,68.7413928 L54,68.7478464 L54,57.2572195 L53.9957034,57.2184979 L53.7235848,53.4383043 C53.7235848,53.4383043 53.6992374,52.9010425 53.7493645,52.0895028 C48.985857,49.4435286 41.9107737,47.7543 33.9949873,47.7543 C26.0978195,47.7543 19.0313294,49.437075 14.267822,52.0765956 C14.3208135,52.8913621 14.2978982,53.4383043 14.2978982,53.4383043 L14.0286441,57.2184979 L14.0042966,57.5121365 L14,57.5121365 L14,68.7543 L14,68.7430062 Z" id="Stroke-3" stroke="#231F20" fill="#F2E4C5" stroke-linecap="round" stroke-linejoin="round"></path>
                    <path d="M40.5332302,27.7543 L24.5672451,27.7543 L24.0102124,21.8790096 C24.0102124,21.8790096 23.3543955,10.6772513 32.5536676,4.7543 C41.7460798,10.6772513 40.9846188,21.9656658 40.9846188,21.9656658 L40.5332302,27.7543 Z" id="Stroke-7" stroke="#231F20" fill="#CFB997"></path>
                    <line x1="32.39155" y1="4.564" x2="32.39155" y2="0" id="Stroke-11" stroke="#231F20" stroke-linecap="round" stroke-linejoin="round"></line>
                    <path d="M40.9931647,34.2218151 L40.975393,33.9627729 L40.7101846,30.6251138 C40.7101846,30.6251138 40.6377307,29.418148 40.9507861,27.7543 L25.0232399,27.7543 C25.3349282,29.418148 25.2583732,30.6251138 25.2583732,30.6251138 L25,33.9627729 L25,44.735797 C27.4948735,44.3657367 30.1619959,44.1579336 32.9357485,44.1579336 C35.7641832,44.1579336 38.4736842,44.3685833 41,44.7543 L41,34.2218151 L40.9931647,34.2218151 Z" id="Stroke-15" stroke="#231F20" fill="#F2E4C5" stroke-linecap="round" stroke-linejoin="round"></path>
                    <path d="M33.4968886,43.69592 C34.3462974,43.69592 35.177038,43.722191 36,43.7543 L36,34.1026337 C36,32.8095177 34.8814561,31.7543 33.4968886,31.7543 C32.1169882,31.7543 31,32.8095177 31,34.1026337 L31,43.7543 C31.8276291,43.722191 32.6537026,43.69592 33.4968886,43.69592 Z" id="Stroke-19" stroke="#231F20" fill="#CFB997"></path>
                    <line x1="19" y1="19.7543" x2="19" y2="16.7543" id="Stroke-23" stroke="#231F20" stroke-linecap="round" stroke-linejoin="round"></line>
                    <path d="M24.7001679,27.418045 L24.7278288,27.418045 C24.2314704,25.1019096 22.8484286,21.8696386 19.0389167,19.7543 C12.5416935,23.3616705 13.0073176,30.1776068 13.0073176,30.1776068 L13.3991794,33.7543 L24.6786539,33.7543 L24.7001679,33.5005151 L24.9906067,30.2305948 C24.9906067,30.2305948 25.0766627,29.0481247 24.7278288,27.418045 L24.7001679,27.418045 Z" id="Stroke-27" stroke="#231F20" fill="#CFB997"></path>
                    <path d="M25,44.7435793 L25,33.7543 L14,33.7543 L14,47.7543 C17.0029806,46.403488 20.7511177,45.3528564 25,44.7435793" id="Fill-29" fill="#F2E4C5"></path>
                    <path d="M25,44.7435793 L25,33.7543 L14,33.7543 L14,47.7543 C17.0029806,46.403488 20.7511177,45.3528564 25,44.7435793 Z" id="Stroke-31" stroke="#231F20"></path>
                    <path d="M21,44.9949205 L21,38.1989731 C21,37.4025508 20.3247779,36.7543 19.5,36.7543 C18.6692991,36.7543 18,37.4025508 18,38.1989731 L18,45.7543 C18.9521224,45.4750535 19.9531096,45.2200274 21,44.9949205 Z" id="Stroke-35" stroke="#231F20" fill="#CFB997"></path>
                    <line x1="46.7032" y1="18.1567" x2="46.7032" y2="14.8660333" id="Fill-37" fill="#FFFFFF"></line>
                    <line x1="47" y1="20.0449667" x2="47" y2="16.7543" id="Stroke-39" stroke="#231F20" stroke-linecap="round" stroke-linejoin="round"></line>
                    <path d="M41.3061631,27.418045 L41.276981,27.418045 C41.7776837,25.1019096 43.1584558,21.8696386 46.9659464,19.7543 C53.4551146,23.3616705 52.9928094,30.1776068 52.9928094,30.1776068 L52.6011554,33.7543 L41.3261298,33.7543 L41.3061631,33.5005151 L41.0081989,30.2305948 C41.0081989,30.2305948 40.9267963,29.0481247 41.276981,27.418045 L41.3061631,27.418045 Z" id="Stroke-43" stroke="#231F20" fill="#CFB997"></path>
                    <path d="M41,44.7435793 L41,33.7543 L53,33.7543 L53,47.7543 C49.7268293,46.403488 45.6357724,45.3528564 41,44.7435793 Z" id="Stroke-47" stroke="#231F20" fill="#F2E4C5"></path>
                    <path d="M45,44.9949205 L45,38.1989731 C45,37.4025508 45.666996,36.7543 46.4955534,36.7543 C47.3285573,36.7543 48,37.4025508 48,38.1989731 L48,45.7543 C47.0454545,45.4750535 46.0479249,45.2200274 45,44.9949205 Z" id="Stroke-51" stroke="#231F20" fill="#CFB997"></path>
                    <line x1="58.89655" y1="42.32015" x2="58.89655" y2="38.61665" id="Stroke-55" stroke="#231F20" stroke-linecap="round" stroke-linejoin="round"></line>
                    <path d="M53.2761405,50.4167826 L53.249379,50.4167826 C53.7071412,48.1001856 54.9705647,44.8686654 58.4650504,42.7543 C64.4173667,46.3595999 63.9934085,53.1754994 63.9934085,53.1754994 L63.6342413,56.7543 L53.294451,56.7543 L53.2761405,56.5004646 L53.0099342,53.2326821 C53.0099342,53.2326821 52.9254243,52.047187 53.249379,50.4167826 L53.2761405,50.4167826 Z" id="Stroke-59" stroke="#231F20" fill="#CFB997"></path>
                    <path d="M63.0355062,70.3723062 C63.3545196,70.5016192 63.6988752,70.6220142 64,70.7543 L64,56.7543 L53,56.7543 L53,67.1112381 C56.9131319,67.9807572 60.3074942,69.086607 63.0355062,70.3723062 Z" id="Stroke-63" stroke="#231F20" fill="#F2E4C5"></path>
                    <path d="M60,68.7543 L60,61.2212348 C60,60.4102936 59.3257762,59.7543 58.4977822,59.7543 C57.6697881,59.7543 57,60.4102936 57,61.2212348 L57,67.7840667 C58.0542139,68.0881697 59.0492854,68.4110981 60,68.7543 Z" id="Stroke-67" stroke="#231F20" fill="#CFB997"></path>
                    <path d="M33.4951126,43.7543 C25.6501486,43.7543 18.6430234,45.3279825 14,47.8004939 L14,50.7839031 C14.0125676,50.8629532 14.0377027,50.9478589 14.0502703,51.0225173 C14.1773425,51.6915154 14.2304057,52.2609688 14.2611264,52.7425889 C18.9055462,50.3476637 25.795374,48.8208257 33.4951126,48.8208257 C41.2130044,48.8208257 48.1112106,50.3535193 52.7556303,52.7543 C52.7849547,52.2741439 52.842207,51.7002987 52.9692792,51.0225173 C52.9776576,50.9829923 52.9916216,50.9390755 53,50.8966227 L53,47.8004939 C48.351391,45.3279825 41.3400766,43.7543 33.4951126,43.7543 Z" id="Stroke-71" stroke="#231F20" fill="#CFB997" stroke-linecap="round" stroke-linejoin="round"></path>
                    <line x1="8.41595" y1="42.32015" x2="8.41595" y2="38.61665" id="Stroke-75" stroke="#231F20" stroke-linecap="round" stroke-linejoin="round"></line>
                    <path d="M13.7262915,50.4167826 L13.7502352,50.4167826 C13.2938979,48.1001856 12.0248859,44.8686654 8.53475096,42.7543 C2.58264827,46.3595999 3.00659122,53.1754994 3.00659122,53.1754994 L3.3643371,56.7543 L13.7023479,56.7543 L13.7262915,56.5004646 L13.9910798,53.2326821 C13.9910798,53.2326821 14.0713614,52.047187 13.7502352,50.4167826 L13.7262915,50.4167826 Z" id="Stroke-79" stroke="#231F20" fill="#CFB997"></path>
                    <path d="M14,67.1112381 L14,56.7543 L3,56.7543 L3,70.7543 C3.30559696,70.6220142 3.65442472,70.4986465 3.97492885,70.3693334 C6.70145006,69.086607 10.0943217,67.9807572 14,67.1112381 Z" id="Stroke-83" stroke="#231F20" fill="#F2E4C5"></path>
                    <path d="M10,67.7840667 L10,61.2212348 C10,60.4102936 9.32873337,59.7543 8.49926072,59.7543 C7.67422376,59.7543 7,60.4102936 7,61.2212348 L7,68.7543 C7.94627896,68.4110981 8.94430754,68.0881697 10,67.7840667 Z" id="Stroke-87" stroke="#231F20" fill="#CFB997"></path>
                    <path d="M65,75.6781291 C58.4290302,72.112431 47.0560869,69.7543 34.1204822,69.7543 C21.0247155,69.7543 9.52912565,72.1754345 3,75.8101364 L3,96.7543 L65,96.7543 L65,75.6781291 Z" id="Stroke-95" stroke="#231F20" fill="#F2E4C5" stroke-linecap="round" stroke-linejoin="round"></path>
                    <path d="M47,66.7543 L47,59.0600069 C47,57.7824044 45.8786936,56.7543 44.4976672,56.7543 C43.1150855,56.7543 42,57.7824044 42,59.0600069 L42,66.2868495 C43.7107309,66.4159002 45.3748056,66.572195 47,66.7543 Z" id="Stroke-99" stroke="#231F20" fill="#CFB997"></path>
                    <path d="M33.5132193,66.7270031 C34.3499222,66.7270031 35.1772939,66.7391351 36,66.7543 L36,57.1913024 C36,55.8446576 34.8802488,54.7543 33.496112,54.7543 C32.118196,54.7543 31,55.8446576 31,57.1913024 L31,66.7543 C31.8351477,66.7391351 32.6702955,66.7270031 33.5132193,66.7270031 Z" id="Stroke-103" stroke="#231F20" fill="#CFB997"></path>
                    <path d="M26,66.2804952 L26,59.0546149 C26,57.7806384 24.8779956,56.7543 23.5038904,56.7543 C22.1251167,56.7543 21,57.7806384 21,59.0546149 L21,66.7543 C22.6215375,66.5624878 24.286648,66.4021672 26,66.2804952 Z" id="Stroke-107" stroke="#231F20" fill="#CFB997"></path>
                    <path d="M0,77.7543 C5.60250859,73.3534441 18.4825615,70.2749847 33.496427,70.2749847 C48.5160093,70.2749847 61.401779,73.3534441 67,77.7543 L67,72.2293357 C61.401779,67.8327593 48.5160093,64.7543 33.496427,64.7543 C18.4825615,64.7543 5.60250859,67.8327593 0,72.2293357 L0,77.7543 Z" id="Stroke-91" stroke="#231F20" fill="#F2E4C5" stroke-linecap="round" stroke-linejoin="round"></path>
                    <path d="M33.4993087,82.7543 C31.5664626,82.7543 30,84.3084814 30,86.2268167 L30,96.7543 L37,96.7543 L37,86.2268167 C37,84.3084814 35.4293897,82.7543 33.4993087,82.7543 Z" id="Stroke-111" stroke="#231F20" fill="#CFB997"></path>
                    <path d="M21.5027657,82.7543 C19.5695377,82.7543 18,84.3084814 18,86.2268167 L18,96.7543 L25,96.7543 L25,86.2268167 C25,84.3084814 23.4318451,82.7543 21.5027657,82.7543 Z" id="Stroke-115" stroke="#231F20" fill="#CFB997"></path>
                    <path d="M10.4986171,82.7543 C8.56953773,82.7543 7,84.3084814 7,86.2268167 L7,96.7543 L14,96.7543 L14,86.2268167 C14,84.3084814 12.433228,82.7543 10.4986171,82.7543 Z" id="Stroke-119" stroke="#231F20" fill="#CFB997"></path>
                    <path d="M44.5013829,82.7543 C42.5695377,82.7543 41,84.3084814 41,86.2268167 L41,96.7543 L48,96.7543 L48,86.2268167 C48,84.3084814 46.433228,82.7543 44.5013829,82.7543 Z" id="Stroke-123" stroke="#231F20" fill="#CFB997"></path>
                    <path d="M56.4965436,82.7543 C54.5678452,82.7543 53,84.3084814 53,86.2268167 L53,96.7543 L60,96.7543 L60,86.2268167 C60,84.3084814 58.4280071,82.7543 56.4965436,82.7543 Z" id="Stroke-127" stroke="#231F20" fill="#CFB997"></path>
                </g>
            </g>
        </g>
    </g>
</svg>