<?xml version="1.0" encoding="UTF-8"?>
<svg width="106px" height="76px" viewBox="0 0 106 76" version="1.1" xmlns="http://www.w3.org/2000/svg" xmlns:xlink="http://www.w3.org/1999/xlink">
    <title>Lucknow</title>
    <g id="final" stroke="none" stroke-width="1" fill="none" fill-rule="evenodd" stroke-linecap="round" stroke-linejoin="round">
        <g id="CovidJaankari_2" transform="translate(-230.000000, -829.000000)" stroke="#231F20">
            <g id="Group-10" transform="translate(206.000000, 804.000000)">
                <g id="Lucknow" transform="translate(25.000000, 26.000000)">
                    <polygon id="Stroke-2" points="1 74 102 74 102 27 1 27"></polygon>
                    <polygon id="Stroke-5" fill="#FAF3D3" points="1 74 102 74 102 42 1 42"></polygon>
                    <path d="M29.9960789,61.5056126 C30.204947,52.7431118 21.9998593,51 21.9998593,51 C21.9998593,51 13.8025651,52.7431118 14.0036396,61.5056126 L14.0036396,74 L29.9991963,74 L29.9960789,61.5056126 Z" id="Stroke-8" fill="#E2D9AD"></path>
                    <path d="M59.9922069,61.5056126 C60.2010629,52.7431118 51.9995656,51 51.9995656,51 C51.9995656,51 43.7980682,52.7431118 44.0038071,61.5056126 L44.0038071,74 L60,74 L59.9922069,61.5056126 Z" id="Stroke-10" fill="#E2D9AD"></path>
                    <path d="M88.9922069,61.5056126 C89.2026208,52.7431118 80.9980357,51 80.9980357,51 C80.9980357,51 72.7965678,52.7431118 73.0038645,61.5056126 L73.0038645,74 L89,74 L88.9922069,61.5056126 Z" id="Stroke-12" fill="#E2D9AD"></path>
                    <polygon id="Stroke-14" fill="#FAF3D3" points="1 42 102 42 102 27 1 27"></polygon>
                    <path d="M15.9981527,37.112069 C16.0929983,33.6800203 12.5041076,33 12.5041076,33 C12.5041076,33 8.91352314,33.6800203 9.00159408,37.112069 L9.00159408,42 L15.9981527,42 L15.9981527,37.112069 Z" id="Stroke-16" fill="#E2D9AD"></path>
                    <path d="M28.9982796,37.1099848 C29.0897797,33.6842372 25.5009428,33 25.5009428,33 C25.5009428,33 21.9053281,33.6842372 22.0019115,37.1099848 L22.0019115,42 L28.9982796,42 L28.9982796,37.1099848 Z" id="Stroke-18" fill="#E2D9AD"></path>
                    <path d="M41.9932283,37.1099848 C42.0880317,33.6842372 38.5007381,33 38.5007381,33 C38.5007381,33 34.9168302,33.6842372 35.0014761,37.1099848 L35.0014761,42 L42,42 L41.9932283,37.1099848 Z" id="Stroke-20" fill="#E2D9AD"></path>
                    <path d="M55.9984633,37.1099848 C56.0848421,33.6842372 52.5009689,33 52.5009689,33 C52.5009689,33 48.9086273,33.6842372 49.0017809,37.1099848 L49.0017809,42 L55.9984633,42 L55.9984633,37.1099848 Z" id="Stroke-22" fill="#E2D9AD"></path>
                    <path d="M68.9984041,37.1099848 C69.0864553,33.6842372 65.5017537,33 65.5017537,33 C65.5017537,33 61.910279,33.6842372 62.0017168,37.1099848 L62.0017168,42 L68.9984041,42 L68.9984041,37.1099848 Z" id="Stroke-24" fill="#E2D9AD"></path>
                    <path d="M81.9984647,37.1099848 C82.0848047,33.6842372 78.5008461,33 78.5008461,33 C78.5008461,33 74.9151945,33.6842372 75.0015346,37.1099848 L75.0015346,42 L81.9984647,42 L81.9984647,37.1099848 Z" id="Stroke-26" fill="#E2D9AD"></path>
                    <path d="M94.9982828,37.1099848 C95.0897403,33.6842372 91.4974922,33 91.4974922,33 C91.4974922,33 87.9086313,33.6842372 88.0017825,37.1099848 L88.0017825,42 L94.9982828,42 L94.9982828,37.1099848 Z" id="Stroke-28" fill="#E2D9AD"></path>
                    <polygon id="Stroke-30" fill="#E2D9AD" points="6.99214403 27 1 27 1.01178396 21 7 21"></polygon>
                    <polygon id="Stroke-32" fill="#E2D9AD" points="5.99836173 16 1 16 1.00982962 9 6 9"></polygon>
                    <path d="M6.99853325,7.33359193 C7.08293492,3.71683476 3.49669147,3 3.49669147,3 C3.49669147,3 -0.082932249,3.71683476 0.00146941972,7.33359193 L0.00146941972,7.38169123 C0.00146941972,8.27695888 0.636964337,9 1.42636818,9 L5.57197956,9 C6.35476366,9 6.99853325,8.27695888 6.99853325,7.38169123 L6.99853325,7.33359193 Z" id="Stroke-34" fill="#FAF3D3"></path>
                    <line x1="4" y1="3" x2="4" y2="0" id="Stroke-36"></line>
                    <path d="M8,19.4158571 C8,20.2901912 7.2857706,21 6.40914466,21 L1.59243201,21 C0.71580607,21 0,20.2901912 0,19.4158571 L0,17.5841429 C0,16.706675 0.71580607,16 1.59243201,16 L6.40914466,16 C7.2857706,16 8,16.706675 8,17.5841429 L8,19.4158571 Z" id="Stroke-39" fill="#FAF3D3"></path>
                    <polygon id="Stroke-41" fill="#E2D9AD" points="101.993449 27 97 27 97.0081887 21 102 21"></polygon>
                    <polygon id="Stroke-43" fill="#E2D9AD" points="101.993449 16 97 16 97.0081887 9 102 9"></polygon>
                    <path d="M102.998418,7.33359193 C103.086188,3.71683476 99.4925807,3 99.4925807,3 C99.4925807,3 95.9122215,3.71683476 96.0016477,7.33359193 L96.0016477,7.38169123 C96.0016477,8.27695888 96.6392232,9 97.4258424,9 L101.570911,9 C102.359186,9 102.998418,8.27695888 102.998418,7.38169123 L102.998418,7.33359193 Z" id="Stroke-45" fill="#FAF3D3"></path>
                    <line x1="100" y1="3" x2="100.006" y2="0" id="Stroke-47"></line>
                    <path d="M104,19.4158571 C104,20.2901912 103.285911,21 102.406305,21 L97.5936946,21 C96.7140887,21 96,20.2901912 96,19.4158571 L96,17.5841429 C96,16.706675 96.7140887,16 97.5936946,16 L102.406305,16 C103.285911,16 104,16.706675 104,17.5841429 L104,19.4158571 Z" id="Stroke-50" fill="#FAF3D3"></path>
                    <path d="M8.44066026,17 C8.44651066,17.0608088 8.47430004,17.1124962 8.47430004,17.1748252 L8.47430004,18.9519611 C8.47430004,19.8002432 7.81174258,20.4889024 7,20.4889024 L7,27 L21,27 L21,17 L8.44066026,17 Z" id="Stroke-54" fill="#E2D9AD"></path>
                    <polygon id="Stroke-56" fill="#E2D9AD" points="21 27 36 27 36 17 21 17"></polygon>
                    <polygon id="Stroke-58" fill="#E2D9AD" points="36 27 52 27 52 17 36 17"></polygon>
                    <polygon id="Stroke-60" fill="#E2D9AD" points="52 27 67 27 67 17 52 17"></polygon>
                    <polygon id="Stroke-62" fill="#E2D9AD" points="67 27 82 27 82 17 67 17"></polygon>
                    <path d="M96.9984329,20.4889024 C96.1240075,20.4889024 95.4141245,19.8002432 95.4141245,18.9519611 L95.4141245,17.1748252 C95.4141245,17.1124962 95.4454659,17.0608088 95.4517342,17 L82,17 L82,27 L97,27 L97,20.4889024 L96.9984329,20.4889024 Z" id="Stroke-64" fill="#E2D9AD"></path>
                </g>
            </g>
        </g>
    </g>
</svg>