<?xml version="1.0" encoding="UTF-8"?>
<svg width="104px" height="75px" viewBox="0 0 104 75" version="1.1" xmlns="http://www.w3.org/2000/svg" xmlns:xlink="http://www.w3.org/1999/xlink">
    <title>Mumbai</title>
    <g id="final" stroke="none" stroke-width="1" fill="none" fill-rule="evenodd">
        <g id="CovidJaankari_2" transform="translate(-70.000000, -996.000000)">
            <g id="Group-11" transform="translate(45.000000, 970.000000)">
                <g id="Mumbai" transform="translate(26.000000, 27.000000)">
                    <path d="M25.1980061,42.4731306 L25.1980061,40.7667505 C25.1980061,40.5410473 25.1576295,40.2128973 25.1980061,40 L0,40 L0,47 L27,47 L27,44.0306426 L26.6530601,44.0306426 C25.847023,44.0306426 25.1980061,43.3327235 25.1980061,42.4731306 Z" id="Stroke-3" stroke="#231F20" fill="#CFB997" stroke-linecap="round" stroke-linejoin="round"></path>
                    <path d="M25.1980061,39.2106985 C25.1980061,38.4873966 25.847023,37.9001347 26.6530601,37.9001347 L27,37.9001347 L26.9970091,33 L0,33 L0,40 L25.1980061,40 L25.1980061,39.2106985 Z" id="Stroke-7" stroke="#231F20" fill="#F2E4C5" stroke-linecap="round" stroke-linejoin="round"></path>
                    <polygon id="Stroke-11" stroke="#231F20" fill="#F2E4C5" stroke-linecap="round" stroke-linejoin="round" points="0 73 27 73 27 47 0 47"></polygon>
                    <path d="M13.5,73 L21,73 L21,61.3876533 L20.0777577,60.5677315 C20.2495479,52.5835018 13.5,51 13.5,51 C13.5,51 6.74894515,52.5835018 6.91922845,60.5677315 L6,61.3876533 L6,73 L13.5,73 Z" id="Stroke-13" stroke="#231F20" fill="#CFB997" stroke-linecap="round" stroke-linejoin="round"></path>
                    <path d="M66.1614961,38 L36.8385039,38 L36.8385039,39.4722667 L36.8385039,42.6967273 C36.8385039,43.5092733 36.1748116,44.1674809 35.3524435,44.1674809 L35,44.1674809 L35,73 L67.9969485,73 L68,44.1674809 L68,44.1266266 L67.6460308,44.1266266 C66.8267141,44.1266266 66.1614961,43.4669059 66.1614961,42.6573862 L66.1614961,39.4298993 L66.1614961,38 Z" id="Stroke-17" stroke="#231F20" fill="#F2E4C5" stroke-linecap="round" stroke-linejoin="round"></path>
                    <path d="M76,29.5674323 C76,30.3580683 75.349545,31 74.5484112,31 L67.4486051,31 C66.6489632,31 66,30.3580683 66,29.5674323 L66,27.4325677 C66,26.6404594 66.6489632,26 67.4486051,26 L74.5484112,26 C75.349545,26 76,26.6404594 76,27.4325677 L76,29.5674323 Z" id="Fill-18" fill="#FFFFFF"></path>
                    <path d="M76,29.5674323 C76,30.3580683 75.349545,31 74.5484112,31 L67.4486051,31 C66.6489632,31 66,30.3580683 66,29.5674323 L66,27.4325677 C66,26.6404594 66.6489632,26 67.4486051,26 L74.5484112,26 C75.349545,26 76,26.6404594 76,27.4325677 L76,29.5674323 Z" id="Stroke-19" stroke="#231F20" stroke-linecap="round" stroke-linejoin="round"></path>
                    <path d="M36.1968562,29 L36.1968562,29.8374541 L36.1968562,29.8434681 L36.1968562,29.8449716 C36.1938974,30.5441029 35.69681,31.1004009 35.0473417,31.2402272 L35,31.2943535 L35,38 L51,38 L51,29 L36.1968562,29 Z" id="Stroke-21" stroke="#231F20" fill="#CFB997" stroke-linecap="round" stroke-linejoin="round"></path>
                    <path d="M65.81476,29.8569997 L65.8029224,29.8419646 L65.8029224,29.7953558 L65.8029224,29 L51,29 L51,38 L67,38 L67,31.295857 L66.9156571,31.1906114 C66.3001017,31.0402606 65.844354,30.5170398 65.81476,29.8569997 Z" id="Stroke-23" stroke="#231F20" fill="#CFB997" stroke-linecap="round" stroke-linejoin="round"></path>
                    <polygon id="Stroke-25" stroke="#231F20" fill="#CFB997" stroke-linecap="round" stroke-linejoin="round" points="32.9945615 26 29 26 29.0054385 20 33 20"></polygon>
                    <polygon id="Stroke-27" stroke="#231F20" fill="#CFB997" stroke-linecap="round" stroke-linejoin="round" points="32.9972789 15 29 15 29.0054422 10 33 10"></polygon>
                    <polygon id="Stroke-29" stroke="#231F20" fill="#CFB997" stroke-linecap="round" stroke-linejoin="round" points="35 38 27 38 27 31 34.9968541 31"></polygon>
                    <polygon id="Stroke-31" stroke="#231F20" fill="#CFB997" stroke-linecap="round" stroke-linejoin="round" points="35 73 27 73 27.0031459 44 35 44"></polygon>
                    <path d="M33.9985387,8.33243824 C34.076673,4.716971 30.9955262,4 30.9955262,4 C30.9955262,4 27.9261732,4.716971 28.0013591,8.33243824 L28.0013591,8.37916219 C28.0013591,9.27336198 28.5482995,10 29.222024,10 L32.7778738,10 C33.4515983,10 33.9985387,9.27336198 33.9985387,8.37916219 L33.9985387,8.33243824 Z" id="Stroke-33" stroke="#231F20" fill="#F2E4C5" stroke-linecap="round" stroke-linejoin="round"></path>
                    <line x1="31.14055" y1="4.72016667" x2="31.14355" y2="1.22016667" id="Fill-34" fill="#FFFFFF"></line>
                    <line x1="31" y1="3.5" x2="31.003" y2="0" id="Stroke-35" stroke="#231F20" stroke-linecap="round" stroke-linejoin="round"></line>
                    <path d="M34,18.4184836 C34,19.2905955 33.3780962,20 32.6085977,20 L28.3914023,20 C27.6219038,20 27,19.2905955 27,18.4184836 L27,16.5831435 C27,15.7077774 27.6219038,15 28.3914023,15 L32.6085977,15 C33.3780962,15 34,15.7077774 34,16.5831435 L34,18.4184836 Z" id="Stroke-38" stroke="#231F20" fill="#F2E4C5" stroke-linecap="round" stroke-linejoin="round"></path>
                    <path d="M36,29.567854 C36,30.3582573 35.349545,31 34.5513949,31 L27.4515888,31 C26.6489632,31 26,30.3582573 26,29.567854 L26,27.432146 C26,26.6417427 26.6489632,26 27.4515888,26 L34.5513949,26 C35.349545,26 36,26.6417427 36,27.432146 L36,29.567854 Z" id="Stroke-40" stroke="#231F20" fill="#F2E4C5" stroke-linecap="round" stroke-linejoin="round"></path>
                    <path d="M66.1491294,29 L66.1491294,27.5875312 C66.1491294,26.7825436 66.8092354,26.1316708 67.6192279,26.1316708 L69,26.1316708 L69,20 L33,20 L33,26.1705736 L34.3822861,26.1705736 C35.1922786,26.1705736 35.8508706,26.8229426 35.8508706,27.6264339 L35.8508706,28.9985037 L66.1491294,29 Z" id="Stroke-44" stroke="#231F20" fill="#F2E4C5" stroke-linecap="round" stroke-linejoin="round"></path>
                    <polygon id="Stroke-46" stroke="#231F20" fill="#CFB997" stroke-linecap="round" stroke-linejoin="round" points="72.9972789 26 69 26 69.0054422 20 73 20"></polygon>
                    <polygon id="Stroke-48" stroke="#231F20" fill="#CFB997" stroke-linecap="round" stroke-linejoin="round" points="73 15 69 15 69.0054459 10 73 10"></polygon>
                    <polygon id="Stroke-50" stroke="#231F20" fill="#CFB997" stroke-linecap="round" stroke-linejoin="round" points="75 38 67 38 67 31 74.9937107 31"></polygon>
                    <polygon id="Stroke-52" stroke="#231F20" fill="#CFB997" stroke-linecap="round" stroke-linejoin="round" points="75 73 68 73 68.0027516 44 75 44"></polygon>
                    <path d="M73.9985366,8.33243824 C74.0767093,4.71858217 70.9969983,4 70.9969983,4 C70.9969983,4 67.9261369,4.71858217 68.0013597,8.33243824 L68.0013597,8.37916219 C68.0013597,9.27336198 68.545619,10 69.2196746,10 L72.7772718,10 C73.4513274,10 73.9985366,9.27336198 73.9985366,8.37916219 L73.9985366,8.33243824 Z" id="Stroke-54" stroke="#231F20" fill="#F2E4C5" stroke-linecap="round" stroke-linejoin="round"></path>
                    <line x1="71.2129" y1="4.6745" x2="71.2159" y2="1.1745" id="Fill-55" fill="#FFFFFF"></line>
                    <line x1="71" y1="3.5" x2="71.003" y2="0" id="Stroke-56" stroke="#231F20" stroke-linecap="round" stroke-linejoin="round"></line>
                    <path d="M74,18.4168565 C74,19.2905955 73.3780962,20 72.6085977,20 L68.3914023,20 C67.6247697,20 67,19.2905955 67,18.4168565 L67,16.5815164 C67,15.7094045 67.6247697,15 68.3914023,15 L72.6085977,15 C73.3780962,15 74,15.7094045 74,16.5815164 L74,18.4168565 Z" id="Stroke-59" stroke="#231F20" fill="#F2E4C5" stroke-linecap="round" stroke-linejoin="round"></path>
                    <path d="M76,29.5674323 C76,30.3580683 75.349545,31 74.5484112,31 L67.4486051,31 C66.6489632,31 66,30.3580683 66,29.5674323 L66,27.4325677 C66,26.6404594 66.6489632,26 67.4486051,26 L74.5484112,26 C75.349545,26 76,26.6404594 76,27.4325677 L76,29.5674323 Z" id="Stroke-61" stroke="#231F20" fill="#F2E4C5" stroke-linecap="round" stroke-linejoin="round"></path>
                    <path d="M77,42.5703067 C77,43.3580368 76.362957,44 75.5717908,44 L67.4282092,44 C66.6385108,44 66,43.3580368 66,42.5703067 L66,39.4296933 C66,38.6390184 66.6385108,38 67.4282092,38 L75.5717908,38 C76.362957,38 77,38.6390184 77,39.4296933 L77,42.5703067 Z" id="Stroke-63" stroke="#231F20" fill="#F2E4C5" stroke-linecap="round" stroke-linejoin="round"></path>
                    <path d="M37,42.5703067 C37,43.3580368 36.305044,44 35.4419536,44 L26.5580464,44 C25.6965572,44 25,43.3580368 25,42.5703067 L25,39.4296933 C25,38.6390184 25.6965572,38 26.5580464,38 L35.4419536,38 C36.305044,38 37,38.6390184 37,39.4296933 L37,42.5703067 Z" id="Stroke-63-Copy" stroke="#231F20" fill="#F2E4C5" stroke-linecap="round" stroke-linejoin="round"></path>
                    <path d="M50.5,73 L62,73 L62,56.6388466 L60.5889942,55.4845508 C60.8493944,44.2354964 50.5,42 50.5,42 C50.5,42 40.1506056,44.2354964 40.4110058,55.4845508 L39,56.6388466 L39,73 L50.5,73 Z" id="Stroke-65" stroke="#231F20" fill="#CFB997" stroke-linecap="round" stroke-linejoin="round"></path>
                    <polygon id="Stroke-67" stroke="#231F20" fill="#F2E4C5" stroke-linecap="round" stroke-linejoin="round" points="75 73 102 73 102 47 75 47"></polygon>
                    <path d="M75.0029905,33 L75,37.8651145 L75.3454062,37.8651145 C76.151354,37.8651145 76.7988038,38.4510294 76.7988038,39.1743313 L76.7988038,40 L102,40 L102,33 L75.0029905,33 Z" id="Stroke-69" stroke="#231F20" fill="#F2E4C5" stroke-linecap="round" stroke-linejoin="round"></path>
                    <path d="M76.8047848,40 C76.845157,40.2128973 76.8047848,40.5410473 76.8047848,40.7667505 C76.8047848,40.7811571 76.7988038,40.7907615 76.7988038,40.8035673 L76.7988038,42.4331123 C76.7988038,43.2895038 76.151354,43.9858221 75.3439109,43.9858221 L75,43.9858221 L75,44.0306426 L75,47 L102,47 L102,40 L76.8047848,40 Z" id="Stroke-71" stroke="#231F20" fill="#CFB997" stroke-linecap="round" stroke-linejoin="round"></path>
                    <path d="M88.5,73 L81,73 L81,61.3876533 L81.9222423,60.5677315 C81.7504521,52.5835018 88.5,51 88.5,51 C88.5,51 95.2510549,52.5835018 95.0807715,60.5677315 L96,61.3876533 L96,73 L88.5,73 Z" id="Fill-74" fill="#CFB997"></path>
                    <path d="M88.5,73 L81,73 L81,61.3876533 L81.9222423,60.5677315 C81.7504521,52.5835018 88.5,51 88.5,51 C88.5,51 95.2510549,52.5835018 95.0807715,60.5677315 L96,61.3876533 L96,73 L88.5,73 Z" id="Stroke-75" stroke="#231F20" stroke-linecap="round" stroke-linejoin="round"></path>
                </g>
            </g>
        </g>
    </g>
</svg>