<?xml version="1.0" encoding="UTF-8"?>
<svg width="109px" height="73px" viewBox="0 0 109 73" version="1.1" xmlns="http://www.w3.org/2000/svg" xmlns:xlink="http://www.w3.org/1999/xlink">
    <title>Pune</title>
    <g id="final" stroke="none" stroke-width="1" fill="none" fill-rule="evenodd">
        <g id="CovidJaankari_2" transform="translate(-228.000000, -998.000000)" stroke="#231F20">
            <g id="Group-12" transform="translate(206.000000, 970.000000)">
                <g id="Pune" transform="translate(23.000000, 28.886076)">
                    <polygon id="Stroke-2" fill="#F7F6DA" stroke-linecap="round" stroke-linejoin="round" points="0 71.1835443 35 71.1835443 35 17.5379747 0 17.5379747"></polygon>
                    <polygon id="Stroke-5" stroke-linecap="round" stroke-linejoin="round" points="0 28.8860759 35 28.8860759 35 17.5379747 0 17.5379747"></polygon>
                    <polygon id="Stroke-8" fill="#EDEDC2" stroke-linecap="round" stroke-linejoin="round" points="0 28.8860759 11 28.8860759 11 17.5379747 0 17.5379747"></polygon>
                    <polygon id="Stroke-11" fill="#EDEDC2" stroke-linecap="round" stroke-linejoin="round" points="11 28.8860759 23 28.8860759 23 17.5379747 11 17.5379747"></polygon>
                    <polygon id="Stroke-13" fill="#EDEDC2" stroke-linecap="round" stroke-linejoin="round" points="23 28.8860759 35 28.8860759 35 17.5379747 23 17.5379747"></polygon>
                    <line x1="7" y1="39.2025316" x2="7" y2="34.0443038" id="Stroke-15"></line>
                    <line x1="14" y1="39.2025316" x2="14" y2="34.0443038" id="Stroke-17"></line>
                    <line x1="20" y1="39.2025316" x2="20" y2="34.0443038" id="Stroke-19"></line>
                    <line x1="27" y1="39.2025316" x2="27" y2="34.0443038" id="Stroke-21"></line>
                    <polygon id="Stroke-23" fill="#F7F6DA" stroke-linecap="round" stroke-linejoin="round" points="72 71.1835443 107 71.1835443 107 17.5379747 72 17.5379747"></polygon>
                    <polygon id="Stroke-26" stroke-linecap="round" stroke-linejoin="round" points="72 28.8860759 107 28.8860759 107 17.5379747 72 17.5379747"></polygon>
                    <polygon id="Stroke-29" fill="#EDEDC2" stroke-linecap="round" stroke-linejoin="round" points="95 28.8860759 107 28.8860759 107 17.5379747 95 17.5379747"></polygon>
                    <polygon id="Stroke-32" fill="#EDEDC2" stroke-linecap="round" stroke-linejoin="round" points="84 28.8860759 95 28.8860759 95 17.5379747 84 17.5379747"></polygon>
                    <polygon id="Stroke-34" fill="#EDEDC2" stroke-linecap="round" stroke-linejoin="round" points="72 28.8860759 84 28.8860759 84 17.5379747 72 17.5379747"></polygon>
                    <line x1="99" y1="39.2025316" x2="99" y2="34.0443038" id="Stroke-36"></line>
                    <line x1="93" y1="39.2025316" x2="93" y2="34.0443038" id="Stroke-38"></line>
                    <line x1="86" y1="39.2025316" x2="86" y2="34.0443038" id="Stroke-40"></line>
                    <line x1="80" y1="39.2025316" x2="80" y2="34.0443038" id="Stroke-42"></line>
                    <polygon id="Stroke-44" fill="#F7F6DA" stroke-linecap="round" stroke-linejoin="round" points="73.8297674 0 32.1734219 0 29 7.22151899 77 7.22151899"></polygon>
                    <polygon id="Stroke-47" fill="#F7F6DA" stroke-linecap="round" stroke-linejoin="round" points="74 17.5204199 74 7.22151899 33 7.22151899 33 17.5204199 34.9509609 17.5204199 34.9509609 29.1348739 34.9509609 71.1835443 71.978409 71.1835443 71.9831177 29.1348739 71.9831177 17.5204199"></polygon>
                    <polygon id="Stroke-50" fill="#EDEDC2" stroke-linecap="round" stroke-linejoin="round" points="72.0324606 17.5677786 74 17.5677786 74 7.22151899 64 7.22151899 64 20.6329114 72.0324606 20.6329114"></polygon>
                    <polygon id="Stroke-52" stroke-linecap="round" stroke-linejoin="round" points="35 28.8860759 72 28.8860759 72 20.6329114 35 20.6329114"></polygon>
                    <polygon id="Stroke-56" fill="#EDEDC2" points="43 20.6329114 53 20.6329114 53 7.22151899 43 7.22151899"></polygon>
                    <polygon id="Stroke-58" fill="#EDEDC2" stroke-linecap="round" stroke-linejoin="round" points="33 7.22151899 33 17.5677786 34.9032307 17.5677786 34.9032307 20.6329114 43 20.6329114 43 7.22151899"></polygon>
                    <polygon id="Stroke-60" fill="#EDEDC2" points="53 20.6329114 64 20.6329114 64 7.22151899 53 7.22151899"></polygon>
                    <line x1="43" y1="40.2341772" x2="43" y2="34.0443038" id="Stroke-62"></line>
                    <line x1="50" y1="40.2341772" x2="50" y2="34.0443038" id="Stroke-64"></line>
                    <line x1="56" y1="40.2341772" x2="56" y2="34.0443038" id="Stroke-66"></line>
                    <line x1="63" y1="40.2341772" x2="63" y2="34.0443038" id="Stroke-68"></line>
                    <path d="M63.0562814,56.3709345 C63.2985891,46.351532 53.528743,44.3607595 53.528743,44.3607595 C53.528743,44.3607595 43.7621276,46.351532 44.0044353,56.3709345 L44.0044353,71.2615853 L63.0578968,71.2615853 L63.0562814,56.3709345 Z" id="Stroke-71" fill="#EDEDC2" stroke-linecap="round" stroke-linejoin="round"></path>
                </g>
            </g>
        </g>
    </g>
</svg>