<?xml version="1.0" encoding="UTF-8"?>
<svg width="122px" height="94px" viewBox="0 0 122 94" version="1.1" xmlns="http://www.w3.org/2000/svg" xmlns:xlink="http://www.w3.org/1999/xlink">
    <title>Chennai</title>
    <defs>
        <polygon id="path-1" points="17.0858276 91.6511076 51.4941912 91.6511076 51.4941912 58.7675633 17.0858276 58.7675633"></polygon>
    </defs>
    <g id="final" stroke="none" stroke-width="1" fill="none" fill-rule="evenodd">
        <g id="CovidJaankari_2" transform="translate(-60.000000, -487.000000)">
            <g id="Group-6" transform="translate(45.000000, 472.000000)">
                <g id="Chennai" transform="translate(16.000000, 16.367880)">
                    <polygon id="Fill-1" fill="#FFFFFF" points="0 92.6321203 16.9824561 92.6321203 16.9824561 59.6700949 0 59.6700949"></polygon>
                    <polygon id="Stroke-2" stroke="#231F20" fill="#FF8C78" stroke-linecap="round" stroke-linejoin="round" points="0 91.4549051 16.9824561 91.4549051 16.9824561 59.6700949 0 59.6700949"></polygon>
                    <polygon id="Fill-4" fill="#ECEFD6" points="5.22118326 45.5435127 0 59.6700949 16.9824561 59.6700949 11.7647853 45.5435127"></polygon>
                    <polygon id="Stroke-5" stroke="#231F20" stroke-linecap="round" stroke-linejoin="round" points="16.9824561 59.6700949 0 59.6700949 5.22118326 45.5435127 11.7647853 45.5435127"></polygon>
                    <polygon id="Fill-7" fill="#ECEFD6" points="5.30701754 45.5435127 11.6754386 45.5435127 11.6754386 42.0118671 11.4892525 40.8346519 5.30701754 40.8346519"></polygon>
                    <polygon id="Stroke-8" stroke="#231F20" stroke-linecap="round" stroke-linejoin="round" points="5.30701754 45.5435127 11.6754386 45.5435127 11.6754386 40.8346519 5.30701754 40.8346519"></polygon>
                    <polygon id="Fill-9" fill="#FF8C78" points="0 77.3283228 16.9824561 77.3283228 16.9824561 59.6700949 0 59.6700949"></polygon>
                    <polygon id="Stroke-10" stroke="#231F20" stroke-linecap="round" stroke-linejoin="round" points="0 77.3283228 16.9824561 77.3283228 16.9824561 59.6700949 0 59.6700949"></polygon>
                    <path d="M5.15951014,91.6511076 L5.15951014,84.3347152 C5.15951014,82.9652215 6.63341505,81.8586392 8.46062888,81.8586392 C10.2824895,81.8586392 11.763532,82.9652215 11.763532,84.3347152 L11.763532,91.6511076 L5.15951014,91.6511076 Z" id="Fill-15" fill="#BE664D"></path>
                    <path d="M5.15951014,91.4549051 L5.15951014,84.2851044 C5.15951014,82.94305 6.63341505,81.8586392 8.46062888,81.8586392 C10.2824895,81.8586392 11.763532,82.94305 11.763532,84.2851044 L11.763532,91.4549051 L5.15951014,91.4549051 Z" id="Stroke-16" stroke="#231F20" stroke-linecap="round" stroke-linejoin="round"></path>
                    <path d="M5.15951014,77.3283228 L5.15951014,66.5569146 C5.15951014,65.1150888 6.63341505,63.9496646 8.46062888,63.9496646 C10.2824895,63.9496646 11.763532,65.1150888 11.763532,66.5569146 L11.763532,77.3283228 L5.15951014,77.3283228 Z" id="Fill-17" fill="#BE664D"></path>
                    <path d="M5.15951014,77.3283228 L5.15951014,66.5569146 C5.15951014,65.1150888 6.63341505,63.9496646 8.46062888,63.9496646 C10.2824895,63.9496646 11.763532,65.1150888 11.763532,66.5569146 L11.763532,77.3283228 L5.15951014,77.3283228 Z" id="Stroke-18" stroke="#231F20" stroke-linecap="round" stroke-linejoin="round"></path>
                    <polygon id="Stroke-20" stroke="#231F20" fill="#FF8C78" stroke-linecap="round" stroke-linejoin="round" points="51.5370165 91.4549051 68.7492281 91.4549051 68.7492281 30.9068038 51.5370165 30.9068038"></polygon>
                    <polygon id="Fill-21" fill="#ECEFD6" points="68.7492281 30.9068038 51.5370165 30.9068038 56.8223753 14.0157278 63.4585161 14.0157278"></polygon>
                    <polygon id="Stroke-22" stroke="#231F20" stroke-linecap="round" stroke-linejoin="round" points="68.7492281 30.9068038 51.5370165 30.9068038 56.8223753 14.0157278 63.4585161 14.0157278"></polygon>
                    <polygon id="Fill-23" fill="#ECEFD6" points="56.8098846 14.0157278 63.4727913 14.0157278 63.4727913 8.79085443 56.8098846 8.79085443"></polygon>
                    <polygon id="Stroke-24" stroke="#231F20" stroke-linecap="round" stroke-linejoin="round" points="56.8098846 14.0157278 63.4727913 14.0157278 63.4727913 8.79085443 56.8098846 8.79085443"></polygon>
                    <line x1="60.140981" y1="8.78987342" x2="60.140981" y2="-5.68434189e-14" id="Fill-25" fill="#FFFFFF"></line>
                    <line x1="60.140981" y1="8.78987342" x2="60.140981" y2="-5.68434189e-14" id="Stroke-26" stroke="#231F20" stroke-linecap="round" stroke-linejoin="round"></line>
                    <polygon id="Stroke-29" stroke="#231F20" fill="#BE664D" points="56.8098846 91.2704747 62.7108574 91.2704747 62.7108574 82.0371835 56.8098846 82.0371835"></polygon>
                    <path d="M63.3926722,58.7659937 L63.3926722,51.4554873 C63.3926722,50.0801076 61.9223361,48.9774494 60.098691,48.9774494 C58.2803991,48.9774494 56.810063,50.0801076 56.810063,51.4554873 L56.810063,58.7659937 L63.3926722,58.7659937 Z" id="Fill-30" fill="#BE664D"></path>
                    <path d="M63.3926722,58.7659937 L63.3926722,51.4554873 C63.3926722,50.0801076 61.9223361,48.9774494 60.098691,48.9774494 C58.2803991,48.9774494 56.810063,50.0801076 56.810063,51.4554873 L56.810063,58.7659937 L63.3926722,58.7659937 Z" id="Stroke-31" stroke="#231F20" stroke-linecap="round" stroke-linejoin="round"></path>
                    <polygon id="Fill-32" fill="#FF8C78" points="51.4941912 76.6749684 68.7064027 76.6749684 68.7064027 58.7656013 51.4941912 58.7656013"></polygon>
                    <polygon id="Stroke-33" stroke="#231F20" stroke-linecap="round" stroke-linejoin="round" points="51.4941912 76.6749684 68.7064027 76.6749684 68.7064027 58.7656013 51.4941912 58.7656013"></polygon>
                    <path d="M63.3926722,76.6753608 L63.3926722,66.4296646 C63.3926722,65.0582089 61.9223361,63.9555506 60.098691,63.9555506 C58.2803991,63.9555506 56.810063,65.0582089 56.810063,66.4296646 L56.810063,76.6753608 L63.3926722,76.6753608 Z" id="Fill-34" fill="#BE664D"></path>
                    <path d="M63.3926722,76.6753608 L63.3926722,66.4296646 C63.3926722,65.0582089 61.9223361,63.9555506 60.098691,63.9555506 C58.2803991,63.9555506 56.810063,65.0582089 56.810063,66.4296646 L56.810063,76.6753608 L63.3926722,76.6753608 Z" id="Stroke-35" stroke="#231F20" stroke-linecap="round" stroke-linejoin="round"></path>
                    <path d="M63.1209098,40.2493797 C63.1209098,42.0819114 61.7719121,43.5652025 60.1070777,43.5652025 C58.43689,43.5652025 57.0843235,42.0819114 57.0843235,40.2493797 C57.0843235,38.4148861 58.43689,36.933557 60.1070777,36.933557 C61.7719121,36.933557 63.1209098,38.4148861 63.1209098,40.2493797" id="Fill-36" fill="#BE664D"></path>
                    <path d="M63.1209098,40.2493797 C63.1209098,42.0819114 61.7719121,43.5652025 60.1070777,43.5652025 C58.43689,43.5652025 57.0843235,42.0819114 57.0843235,40.2493797 C57.0843235,38.4148861 58.43689,36.933557 60.1070777,36.933557 C61.7719121,36.933557 63.1209098,38.4148861 63.1209098,40.2493797 Z" id="Stroke-37" stroke="#231F20" stroke-linecap="round" stroke-linejoin="round"></path>
                    <polygon id="Fill-38" fill="#FFFFFF" points="103.112982 91.6511076 120.368019 91.6511076 120.368019 58.7675633 103.112982 58.7675633"></polygon>
                    <polygon id="Fill-40" fill="#ECEFD6" points="103.112804 58.7679557 120.36784 58.7679557 115.066422 44.6649177 108.410653 44.6649177"></polygon>
                    <polygon id="Stroke-41" stroke="#231F20" stroke-linecap="round" stroke-linejoin="round" points="103.112804 58.7679557 120.36784 58.7679557 115.066422 44.6649177 108.410653 44.6649177"></polygon>
                    <polygon id="Fill-42" fill="#ECEFD6" points="108.38585 44.6645253 115.095151 44.6645253 115.095151 39.4396519 108.38585 39.4396519"></polygon>
                    <polygon id="Stroke-43" stroke="#231F20" stroke-linecap="round" stroke-linejoin="round" points="108.38585 44.6645253 115.095151 44.6645253 115.095151 39.4396519 108.38585 39.4396519"></polygon>
                    <polygon id="Fill-44" fill="#FF8C78" points="103.112982 76.6749684 120.368019 76.6749684 120.368019 58.7675633 103.112982 58.7675633"></polygon>
                    <polygon id="Stroke-45" stroke="#231F20" stroke-linecap="round" stroke-linejoin="round" points="103.112982 76.6749684 120.368019 76.6749684 120.368019 58.7675633 103.112982 58.7675633"></polygon>
                    <polygon id="Stroke-47" stroke="#231F20" fill="#FF8C78" stroke-linecap="round" stroke-linejoin="round" points="103.112982 91.4549051 120.368019 91.4549051 120.368019 76.6749684 103.112982 76.6749684"></polygon>
                    <path d="M115.038943,91.4549051 L115.038943,84.2851044 C115.038943,82.94305 113.565038,81.8586392 111.737824,81.8586392 C109.919532,81.8586392 108.438489,82.94305 108.438489,84.2851044 L108.438489,91.4549051 L111.131228,91.4549051 L115.038943,91.4549051 Z" id="Stroke-49" stroke="#231F20" fill="#BE664D" stroke-linecap="round" stroke-linejoin="round"></path>
                    <path d="M115.038943,76.6753608 L115.038943,66.4296646 C115.038943,65.0582089 113.565038,63.9496646 111.737824,63.9496646 C109.919532,63.9496646 108.438489,65.0582089 108.438489,66.4296646 L108.438489,76.6753608 L115.038943,76.6753608 Z" id="Fill-50" fill="#BE664D"></path>
                    <path d="M115.038943,76.6753608 L115.038943,66.4296646 C115.038943,65.0582089 113.565038,63.9496646 111.737824,63.9496646 C109.919532,63.9496646 108.438489,65.0582089 108.438489,66.4296646 L108.438489,76.6753608 L115.038943,76.6753608 Z" id="Stroke-51" stroke="#231F20" stroke-linecap="round" stroke-linejoin="round"></path>
                    <polygon id="Stroke-53" stroke="#231F20" fill="#FF8C78" stroke-linecap="round" stroke-linejoin="round" points="69.1480697 91.4549051 103.112982 91.4549051 103.112982 58.7675633 69.1480697 58.7675633"></polygon>
                    <polygon id="Fill-54" fill="#ECEFD6" points="68.7081871 66.2585759 103.112982 66.2585759 103.112982 58.7695253 68.7081871 58.7695253"></polygon>
                    <polygon id="Stroke-55" stroke="#231F20" stroke-linecap="round" stroke-linejoin="round" points="68.7081871 66.2585759 103.112982 66.2585759 103.112982 58.7695253 68.7081871 58.7695253"></polygon>
                    <polygon id="Fill-58" fill="#FF8C78" points="68.7081871 78.2857911 103.112982 78.2857911 103.112982 66.2585759 68.7081871 66.2585759"></polygon>
                    <polygon id="Stroke-59" stroke="#231F20" stroke-linecap="round" stroke-linejoin="round" points="68.7081871 78.2857911 103.112982 78.2857911 103.112982 66.2585759 68.7081871 66.2585759"></polygon>
                    <path d="M82.5193542,85.0861709 L75.1337702,85.0861709 L82.5193542,85.0861709 Z" id="Fill-60" fill="#BE664D"></path>
                    <polygon id="Stroke-61" stroke="#231F20" fill="#BE664D" points="75.3596491 91.4549051 82.7452332 91.4549051 82.7452332 84.3916139 75.3596491 84.3916139"></polygon>
                    <path d="M82.4772426,78.2848101 L82.4772426,72.4536709 C82.4772426,71.2411392 80.8427427,70.2562025 78.8245993,70.2562025 C76.8100247,70.2562025 75.1755248,71.2411392 75.1755248,72.4536709 L75.1755248,78.2848101 L82.4772426,78.2848101 Z" id="Fill-62" fill="#BE664D"></path>
                    <path d="M82.4772426,78.2848101 L82.4772426,72.4536709 C82.4772426,71.2411392 80.8427427,70.2562025 78.8245993,70.2562025 C76.8100247,70.2562025 75.1755248,71.2411392 75.1755248,72.4536709 L75.1755248,78.2848101 L82.4772426,78.2848101 Z" id="Stroke-63" stroke="#231F20" stroke-linecap="round" stroke-linejoin="round"></path>
                    <path d="M96.6178078,85.0842089 L89.2322237,85.0842089 L96.6178078,85.0842089 Z" id="Fill-64" fill="#BE664D"></path>
                    <polygon id="Stroke-65" stroke="#231F20" fill="#BE664D" points="89.1578947 91.4549051 96.5434788 91.4549051 96.5434788 84.3916139 89.1578947 84.3916139"></polygon>
                    <path d="M96.5746256,78.2828481 L96.5746256,72.4517089 C96.5746256,71.2391772 94.9365569,70.2542405 92.9219823,70.2542405 C90.9074077,70.2542405 89.269339,71.2391772 89.269339,72.4517089 L89.269339,78.2828481 L96.5746256,78.2828481 Z" id="Fill-66" fill="#BE664D"></path>
                    <path d="M96.5746256,78.2828481 L96.5746256,72.4517089 C96.5746256,71.2391772 94.9365569,70.2542405 92.9219823,70.2542405 C90.9074077,70.2542405 89.269339,71.2391772 89.269339,72.4517089 L89.269339,78.2828481 L96.5746256,78.2828481 Z" id="Stroke-67" stroke="#231F20" stroke-linecap="round" stroke-linejoin="round"></path>
                    <g id="Fill-68">
                        <use fill="#FFFFFF" xlink:href="#path-1"></use>
                        <use fill="#FF8C78" xlink:href="#path-1"></use>
                    </g>
                    <polygon id="Stroke-69" stroke="#231F20" stroke-linecap="round" stroke-linejoin="round" points="17.0893964 91.4549051 51.4941912 91.4549051 51.4941912 58.7675633 17.0893964 58.7675633"></polygon>
                    <polygon id="Fill-70" fill="#ECEFD6" points="17.0858276 66.2585759 51.4941912 66.2585759 51.4941912 58.7695253 17.0858276 58.7695253"></polygon>
                    <polygon id="Stroke-71" stroke="#231F20" stroke-linecap="round" stroke-linejoin="round" points="17.0858276 66.2585759 51.4941912 66.2585759 51.4941912 58.7695253 17.0858276 58.7695253"></polygon>
                    <polygon id="Fill-74" fill="#FF8C78" points="17.0858276 78.2857911 51.4941912 78.2857911 51.4941912 66.2585759 17.0858276 66.2585759"></polygon>
                    <polygon id="Stroke-75" stroke="#231F20" stroke-linecap="round" stroke-linejoin="round" points="17.0858276 78.2857911 51.4941912 78.2857911 51.4941912 66.2585759 17.0858276 66.2585759"></polygon>
                    <polygon id="Stroke-77" stroke="#231F20" fill="#BE664D" points="38.0288263 90.9565506 45.4144104 90.9565506 45.4144104 84.3916139 38.0288263 84.3916139"></polygon>
                    <path d="M37.7212101,78.2848101 L37.7212101,72.4536709 C37.7212101,71.2411392 39.3557099,70.2562025 41.3738533,70.2562025 C43.388428,70.2562025 45.0300654,71.2411392 45.0300654,72.4536709 L45.0300654,78.2848101 L37.7212101,78.2848101 Z" id="Fill-78" fill="#BE664D"></path>
                    <path d="M37.7212101,78.2848101 L37.7212101,72.4536709 C37.7212101,71.2411392 39.3557099,70.2562025 41.3738533,70.2562025 C43.388428,70.2562025 45.0300654,71.2411392 45.0300654,72.4536709 L45.0300654,78.2848101 L37.7212101,78.2848101 Z" id="Stroke-79" stroke="#231F20" stroke-linecap="round" stroke-linejoin="round"></path>
                    <polygon id="Stroke-81" stroke="#231F20" fill="#BE664D" points="23.5397824 90.9545886 30.9289352 90.9545886 30.9289352 84.3916139 23.5397824 84.3916139"></polygon>
                    <path d="M23.6272174,78.2828481 L23.6272174,72.4517089 C23.6272174,71.2391772 25.2617173,70.2542405 27.2762919,70.2542405 C29.2944353,70.2542405 30.9289352,71.2391772 30.9289352,72.4517089 L30.9289352,78.2828481 L23.6272174,78.2828481 Z" id="Fill-82" fill="#BE664D"></path>
                    <path d="M23.6272174,78.2828481 L23.6272174,72.4517089 C23.6272174,71.2391772 25.2617173,70.2542405 27.2762919,70.2542405 C29.2944353,70.2542405 30.9289352,71.2391772 30.9289352,72.4517089 L30.9289352,78.2828481 L23.6272174,78.2828481 Z" id="Stroke-83" stroke="#231F20" stroke-linecap="round" stroke-linejoin="round"></path>
                </g>
            </g>
        </g>
    </g>
</svg>