<?xml version="1.0" encoding="UTF-8"?>
<svg width="66px" height="86px" viewBox="0 0 66 86" version="1.1" xmlns="http://www.w3.org/2000/svg" xmlns:xlink="http://www.w3.org/1999/xlink">
    <title>Delhi</title>
    <g id="final" stroke="none" stroke-width="1" fill="none" fill-rule="evenodd">
        <g id="CovidJaankari_2" transform="translate(-250.000000, -489.000000)">
            <g id="Group-5" transform="translate(206.000000, 472.000000)">
                <g id="Delhi" transform="translate(45.000000, 18.000000)">
                    <path d="M42.3239682,49 L42.3239682,49 C42.3239682,43.4916956 37.6973499,39.023727 31.9955937,39.023727 C26.2988732,39.023727 21.6772908,43.4916956 21.6772908,49 L2,49 L2,29 L62,29 L62,49 L42.3239682,49 Z" id="Stroke-3" stroke="#231F20" fill="#EFD7AB" stroke-linecap="round" stroke-linejoin="round"></path>
                    <path d="M50.268041,8.49936287 L57,8.49936287 L57,17 L32.4974524,17 L8,17 L8,8.49936287 L14.7345066,8.49936287 L14.7345066,3.36406566 L14.7345066,3.34877445 C18.2603463,3.27614122 24.768119,2.90405517 27.5029375,1.54823477 C27.874883,1.36346601 28.2124363,1.13409789 28.553811,0.921295255 L28.5818343,0.906004048 C29.4148903,0.359343378 30.8555423,0 32.5038214,0 C34.1406364,0 35.5876573,0.359343378 36.4219871,0.906004048 L36.4487366,0.921295255 C36.7901113,1.13409789 37.1276646,1.36346601 37.4996101,1.54823477 C40.231881,2.90405517 46.7409275,3.27614122 50.268041,3.34877445 L50.268041,3.36406566 L50.268041,8.49936287 Z" id="Fill-5" fill="#EFD7AB"></path>
                    <path d="M50.268041,8.49936287 L57,8.49936287 L57,17 L32.4974524,17 L8,17 L8,8.49936287 L14.7345066,8.49936287 L14.7345066,3.36406566 L14.7345066,3.34877445 C18.2603463,3.27614122 24.768119,2.90405517 27.5029375,1.54823477 C27.874883,1.36346601 28.2124363,1.13409789 28.553811,0.921295255 L28.5818343,0.906004048 C29.4148903,0.359343378 30.8555423,0 32.5038214,0 C34.1406364,0 35.5876573,0.359343378 36.4219871,0.906004048 L36.4487366,0.921295255 C36.7901113,1.13409789 37.1276646,1.36346601 37.4996101,1.54823477 C40.231881,2.90405517 46.7409275,3.27614122 50.268041,3.34877445 L50.268041,3.36406566 L50.268041,8.49936287 Z" id="Stroke-7" stroke="#231F20" stroke-linecap="round" stroke-linejoin="round"></path>
                    <path d="M17,38.0013838 C17,39.6563653 15.6531459,41 14.003457,41 C12.3413229,41 11,39.6563653 11,38.0013838 C11,36.3422509 12.3413229,35 14.003457,35 C15.6531459,35 17,36.3422509 17,38.0013838" id="Fill-9" fill="#EAC591"></path>
                    <path d="M17,38.0013838 C17,39.6563653 15.6531459,41 14.003457,41 C12.3413229,41 11,39.6563653 11,38.0013838 C11,36.3422509 12.3413229,35 14.003457,35 C15.6531459,35 17,36.3422509 17,38.0013838 Z" id="Stroke-11" stroke="#231F20" stroke-linecap="round" stroke-linejoin="round"></path>
                    <path d="M52,38.0013838 C52,39.6563653 50.6539082,41 48.9993083,41 C47.3391745,41 46,39.6563653 46,38.0013838 C46,36.3422509 47.3391745,35 48.9993083,35 C50.6539082,35 52,36.3422509 52,38.0013838" id="Fill-13" fill="#EAC591"></path>
                    <path d="M52,38.0013838 C52,39.6563653 50.6539082,41 48.9993083,41 C47.3391745,41 46,39.6563653 46,38.0013838 C46,36.3422509 47.3391745,35 48.9993083,35 C50.6539082,35 52,36.3422509 52,38.0013838 Z" id="Stroke-15" stroke="#231F20" stroke-linecap="round" stroke-linejoin="round"></path>
                    <path d="M62,21.5027174 C62,22.330163 61.3780818,23 60.6101261,23 L3.38861495,23 C2.61940032,23 2,22.330163 2,21.5027174 L2,18.5 C2,17.6725543 2.61940032,17 3.38861495,17 L60.6101261,17 C61.3780818,17 62,17.6725543 62,18.5 L62,21.5027174 Z" id="Fill-17" fill="#EAC591"></path>
                    <path d="M62,21.5027174 C62,22.330163 61.3780818,23 60.6101261,23 L3.38861495,23 C2.61940032,23 2,22.330163 2,21.5027174 L2,18.5 C2,17.6725543 2.61940032,17 3.38861495,17 L60.6101261,17 C61.3780818,17 62,17.6725543 62,18.5 L62,21.5027174 Z" id="Stroke-19" stroke="#231F20" stroke-linecap="round" stroke-linejoin="round"></path>
                    <path d="M64,27.4738091 C64,28.3178494 63.3878998,29 62.6249562,29 L1.37878375,29 C0.617086758,29 0,28.3178494 0,27.4738091 L0,23.5261909 C0,22.6863016 0.617086758,22 1.37878375,22 L62.6249562,22 C63.3878998,22 64,22.6863016 64,23.5261909 L64,27.4738091 Z" id="Fill-21" fill="#EAC591"></path>
                    <path d="M64,27.4738091 C64,28.3178494 63.3878998,29 62.6249562,29 L1.37878375,29 C0.617086758,29 0,28.3178494 0,27.4738091 L0,23.5261909 C0,22.6863016 0.617086758,22 1.37878375,22 L62.6249562,22 C63.3878998,22 64,22.6863016 64,23.5261909 L64,27.4738091 Z" id="Stroke-23" stroke="#231F20" stroke-linecap="round" stroke-linejoin="round"></path>
                    <path d="M24,51.7720568 C24,52.451155 23.3872182,53 22.633311,53 L1.3691649,53 C0.612781761,53 0,52.451155 0,51.7720568 L0,50.2234901 C0,49.5510715 0.612781761,49 1.3691649,49 L22.633311,49 C23.3872182,49 24,49.5510715 24,50.2234901 L24,51.7720568 Z" id="Fill-25" fill="#EAC591"></path>
                    <path d="M24,51.7720568 C24,52.451155 23.3872182,53 22.633311,53 L1.3691649,53 C0.612781761,53 0,52.451155 0,51.7720568 L0,50.2234901 C0,49.5510715 0.612781761,49 1.3691649,49 L22.633311,49 C23.3872182,49 24,49.5510715 24,50.2234901 L24,51.7720568 Z" id="Stroke-27" stroke="#231F20" stroke-linecap="round" stroke-linejoin="round"></path>
                    <path d="M64,51.7720568 C64,52.451155 63.3920132,53 62.6341967,53 L41.3620885,53 C40.6092251,53 40,52.451155 40,51.7720568 L40,50.2234901 C40,49.5510715 40.6092251,49 41.3620885,49 L62.6341967,49 C63.3920132,49 64,49.5510715 64,50.2234901 L64,51.7720568 Z" id="Fill-29" fill="#EAC591"></path>
                    <path d="M64,51.7720568 C64,52.451155 63.3920132,53 62.6341967,53 L41.3620885,53 C40.6092251,53 40,52.451155 40,51.7720568 L40,50.2234901 C40,49.5510715 40.6092251,49 41.3620885,49 L62.6341967,49 C63.3920132,49 64,49.5510715 64,50.2234901 L64,51.7720568 Z" id="Stroke-31" stroke="#231F20" stroke-linecap="round" stroke-linejoin="round"></path>
                    <polygon id="Fill-33" fill="#EFD7AB" points="42 84 62 84 62 53 42 53"></polygon>
                    <polygon id="Stroke-35" stroke="#231F20" stroke-linecap="round" stroke-linejoin="round" points="42 84 62 84 62 53 42 53"></polygon>
                    <polygon id="Fill-36" fill="#EFD7AB" points="2 84 22 84 22 53 2 53"></polygon>
                    <polygon id="Stroke-37" stroke="#231F20" stroke-linecap="round" stroke-linejoin="round" points="2 84 22 84 22 53 2 53"></polygon>
                    <path d="M41.9045143,53.5031158 L40.9616049,53.5031158 C40.2218772,53.5031158 39.6232818,52.8979993 39.6232818,52.1465235 L39.6232818,50.4369465 C39.6232818,49.6928501 40.2218772,48.8515208 40.9616049,48.8515208 L42,48.8515208 C42,43.2837117 37.4819648,39 31.9717237,39 C26.4675658,39 22,43.2837117 22,48.8515208 L22.9879258,48.8515208 C23.7288701,48.8515208 24.3311155,49.6928501 24.3311155,50.4369465 L24.3311155,52.1465235 C24.3311155,52.8979993 23.7288701,53.5031158 22.9879258,53.5031158 L22,53.5031158 L22,84 L41.9045143,84 L41.9045143,53.5031158 Z" id="Stroke-39" stroke="#231F20" fill="#EAC591" stroke-linecap="round" stroke-linejoin="round"></path>
                    <line x1="2" y1="83" x2="61" y2="83" id="Fill-40" fill="#FFFFFF"></line>
                </g>
            </g>
        </g>
    </g>
</svg>