<?xml version="1.0" encoding="utf-8"?>
<!-- Generator: Adobe Illustrator 25.2.1, SVG Export Plug-In . SVG Version: 6.00 Build 0)  -->
<svg version="1.1" id="Layer_1" xmlns="http://www.w3.org/2000/svg" xmlns:xlink="http://www.w3.org/1999/xlink" x="0px" y="0px"
	 viewBox="0 0 415 130" style="enable-background:new 0 0 415 130;" xml:space="preserve">
<style type="text/css">
	.st0{fill:#38C6F4;}
	.st1{fill:#023F88;}
	.st2{fill:#FFFFFF;}
</style>
<g>
	<path class="st0" d="M188.72,45.48c-12.41,0-22.48,10.06-22.48,22.48s10.06,22.48,22.48,22.48c12.41,0,22.48-10.06,22.48-22.48
		S201.13,45.48,188.72,45.48z M188.72,81.77c-7.63,0-13.81-6.18-13.81-13.81s6.18-13.81,13.81-13.81c7.63,0,13.81,6.18,13.81,13.81
		S196.35,81.77,188.72,81.77z"/>
	<path class="st1" d="M51,45.45c-2.42,0-4.81,0.47-7.09,1.4c-2.31,0.94-4.38,2.4-6.17,4.32c-1.76,1.9-3.2,4.27-4.27,7.05
		c-1.07,2.78-1.62,6.05-1.62,9.73c0,3.17,0.38,6.12,1.14,8.8c0.78,2.77,2.07,5.21,3.82,7.25c1.76,2.05,4.03,3.66,6.74,4.79
		c2.66,1.11,5.89,1.67,9.58,1.67c2.81,0,5.31-0.31,7.43-0.91c2.15-0.61,3.56-1.13,4.43-1.63l1.21-0.69l-1.72-8.04l-2.2,1.1
		c-0.43,0.21-1.32,0.59-3.16,1.19c-1.38,0.45-3.34,0.67-5.82,0.67c-4.28,0-7.39-1.09-9.24-3.23c-1.63-1.89-2.64-4.57-2.99-7.98
		h27.31l0.23-1.64c0.06-0.4,0.1-0.83,0.13-1.29c0.03-0.45,0.04-0.89,0.04-1.34c0-7.02-1.62-12.35-4.81-15.86
		C60.73,47.25,56.37,45.45,51,45.45z M41.33,62.92c0.16-0.82,0.38-1.62,0.66-2.39c0.5-1.35,1.2-2.55,2.09-3.57
		c0.88-1,1.92-1.82,3.09-2.41c1.12-0.57,2.43-0.86,3.9-0.86c2.77,0,4.83,0.89,6.29,2.72c1.27,1.58,2.06,3.77,2.35,6.51H41.33z"/>
	<path class="st1" d="M102.42,47.4c-0.48-0.21-1-0.43-1.56-0.64c-2.12-0.82-4.62-1.23-7.44-1.23c-3.11,0-5.93,0.57-8.39,1.7
		c-2.46,1.13-4.57,2.74-6.28,4.78c-1.68,2.02-2.97,4.43-3.83,7.17c-0.84,2.69-1.27,5.67-1.27,8.85c0,3.42,0.51,6.54,1.53,9.28
		c1.03,2.78,2.5,5.18,4.38,7.14c1.89,1.97,4.17,3.5,6.78,4.53c2.58,1.03,5.47,1.55,8.6,1.55c3.62,0,6.67-0.24,9.07-0.72
		c2.4-0.48,4.33-0.98,5.89-1.52l1.28-0.44V26.22l-8.77,1.62V47.4z M95.02,82.22c-3.76,0-6.67-1.16-8.91-3.55
		c-2.24-2.39-3.38-5.97-3.38-10.63c0-2.03,0.21-3.98,0.64-5.78c0.4-1.71,1.05-3.21,1.92-4.45c0.85-1.21,1.94-2.15,3.33-2.88
		c1.37-0.72,3.14-1.08,5.26-1.08c1.03,0,2.03,0.1,2.96,0.3c0.96,0.21,1.86,0.47,2.68,0.79c0.81,0.32,1.53,0.66,2.12,1.01
		c0.28,0.17,0.55,0.33,0.78,0.49v25.16c-0.51,0.11-1.1,0.21-1.78,0.31C99.25,82.11,97.35,82.22,95.02,82.22z"/>
	<rect x="117.94" y="46.36" class="st1" width="8.77" height="43.25"/>
	<path class="st1" d="M158.6,68.43c-1.19-0.99-2.59-1.85-4.13-2.56c-1.42-0.64-2.93-1.28-4.45-1.89c-1.46-0.6-2.75-1.15-3.88-1.65
		c-1.01-0.45-1.86-0.93-2.53-1.42c-0.57-0.42-0.97-0.87-1.25-1.39c-0.26-0.48-0.39-1.11-0.39-1.86c0-0.7,0.14-1.28,0.4-1.71
		c0.31-0.5,0.71-0.9,1.23-1.23c0.58-0.37,1.26-0.64,2.04-0.82c0.85-0.2,1.77-0.3,2.74-0.3c2.57,0,4.5,0.22,5.74,0.65
		c1.71,0.6,2.5,0.95,2.87,1.13l2.11,1.06l2.12-8.21l-1.38-0.69c-0.85-0.42-2.18-0.87-4.07-1.36c-1.9-0.5-4.31-0.75-7.16-0.75
		c-4.66,0-8.41,1.15-11.17,3.41c-2.87,2.35-4.32,5.47-4.32,9.26c0,1.98,0.38,3.71,1.13,5.15c0.73,1.39,1.71,2.6,2.92,3.6
		c1.13,0.93,2.44,1.76,3.9,2.46c1.34,0.64,2.78,1.29,4.29,1.91c1.77,0.74,3.31,1.4,4.57,1.96c1.1,0.49,1.97,1,2.6,1.5
		c0.52,0.42,0.87,0.85,1.08,1.33c0.22,0.52,0.34,1.19,0.34,1.99c0,1.51-0.54,2.46-1.74,3.07c-1.58,0.8-3.66,1.21-6.19,1.21
		c-1.46,0-2.76-0.09-3.84-0.28c-1.1-0.19-2.05-0.41-2.82-0.66c-0.79-0.25-1.42-0.49-1.86-0.69c-0.56-0.25-0.71-0.34-0.71-0.34
		l-2.17-1.46l-2.46,8.54l1.42,0.71c0.71,0.36,2,0.83,3.94,1.45c2.04,0.65,4.83,0.97,8.51,0.97c5,0,9.04-1.04,12.02-3.08
		c3.21-2.2,4.83-5.45,4.83-9.66c0-2.18-0.41-4.06-1.21-5.59C160.88,70.74,159.85,69.48,158.6,68.43z"/>
	<path class="st1" d="M188.67,95.12c-2.99,0-5.87-0.49-8.56-1.39v9.02c2.75,0.67,5.61,1.03,8.56,1.03c2.98,0,5.88-0.37,8.66-1.05
		V93.7C194.61,94.61,191.7,95.12,188.67,95.12z"/>
	<path class="st1" d="M250.58,57.84c-0.57-2.49-1.54-4.67-2.89-6.48c-1.39-1.87-3.27-3.32-5.58-4.31c-2.24-0.96-5.02-1.45-8.27-1.45
		c-3.72,0-6.93,0.27-9.54,0.8c-2.57,0.53-4.55,0.98-6.08,1.4l-1.4,0.39v41.42h8.77V54.56c0.42-0.08,0.97-0.17,1.69-0.28
		c1.6-0.24,3.55-0.36,5.78-0.36c1.95,0,3.56,0.23,4.8,0.68c1.1,0.4,1.96,1.05,2.63,1.96c0.72,0.99,1.25,2.33,1.58,3.98
		c0.36,1.8,0.54,4.06,0.54,6.72v22.35h8.77V65.66C251.39,62.84,251.11,60.21,250.58,57.84z"/>
	<path class="st0" d="M249.52,45.86c1.7,0.23,3.25,0.62,4.58,1.19c2.31,1,4.19,2.45,5.58,4.31c1.35,1.81,2.32,3.99,2.89,6.48
		c0.54,2.37,0.81,5,0.81,7.82L264,89.61l112.31,0c1.74,0,3.16-1.41,3.16-3.16V49.02c0-1.74-1.41-3.16-3.16-3.16H370"/>
	<path class="st2" d="M276.41,80.73c0,2.37-1.93,4.3-4.3,4.3h-0.25v4.58h0.25c4.9,0,8.88-3.99,8.88-8.88V54.76h-4.58V80.73z"/>
	<path class="st2" d="M299.11,54.3c-7.74,0-14.04,6.3-14.04,14.04c0,7.74,6.3,14.04,14.04,14.04s14.04-6.3,14.04-14.04
		C313.15,60.6,306.85,54.3,299.11,54.3z M299.11,77.8c-5.22,0-9.46-4.24-9.46-9.46s4.24-9.46,9.46-9.46c5.22,0,9.46,4.24,9.46,9.46
		S304.33,77.8,299.11,77.8z"/>
	<path class="st2" d="M332.24,54.3c-2.99,0-5.85,0.93-8.27,2.69l-0.2,0.15l2.7,3.7l0.2-0.15c1.62-1.19,3.55-1.81,5.57-1.81
		c5.22,0,9.46,4.24,9.46,9.46s-4.24,9.46-9.46,9.46c-2,0-3.9-0.61-5.51-1.77l-0.2-0.15l-2.67,3.72l0.2,0.15
		c2.4,1.72,5.23,2.63,8.19,2.63c7.74,0,14.04-6.3,14.04-14.04C346.28,60.6,339.98,54.3,332.24,54.3z"/>
	<rect x="317.15" y="45.85" class="st2" width="4.58" height="35.76"/>
	<path class="st2" d="M370.52,72.87c-0.58-2.57-2.7-6.87-10.4-6.87l-0.4,0.01c-4.62,0-5.13-2.32-5.3-3.09
		c-0.21-0.96-0.01-1.93,0.55-2.66c0.98-1.28,2.6-1.93,4.81-1.93c4.97,0,6.44,3.5,6.5,3.65l0.09,0.23l4.28-1.62l-0.09-0.23
		c-0.1-0.27-2.59-6.6-10.78-6.6c-4.62,0-7.14,2.02-8.44,3.71c-1.38,1.8-1.89,4.14-1.39,6.42c0.44,2.01,2.28,6.69,9.81,6.69l0.4-0.01
		c3.41,0,5.4,1.11,5.89,3.3c0.23,1.01,0.01,2.04-0.6,2.81c-1.1,1.38-2.9,2.08-5.36,2.08c-5.5,0-7.13-3.76-7.2-3.92l-0.09-0.23
		l-4.25,1.69l0.09,0.23c0.11,0.28,2.77,6.8,11.45,6.8c4.89,0,7.56-2.07,8.94-3.81C370.51,77.68,371.05,75.25,370.52,72.87z"/>
</g>
</svg>
